<svg width="24" height="24" viewBox="0 0 24 24" fill="none" xmlns="http://www.w3.org/2000/svg">
<path d="M21.4864 5.51355L21.4865 5.51357C21.5504 5.57742 21.6011 5.65325 21.6357 5.73671C21.6703 5.82017 21.6881 5.90963 21.6881 5.99998C21.6881 6.09033 21.6703 6.17979 21.6357 6.26325C21.6011 6.34671 21.5504 6.42254 21.4865 6.48639L21.4864 6.48641L12.4865 15.4864C12.4226 15.5502 12.3467 15.6008 12.2633 15.6353C12.1798 15.6698 12.0904 15.6875 12 15.6875H12H9C8.81766 15.6875 8.6428 15.615 8.51386 15.4861C8.38493 15.3572 8.3125 15.1823 8.3125 15V12V11.9999C8.31243 11.9096 8.33015 11.8202 8.36466 11.7367C8.39916 11.6533 8.44976 11.5774 8.51357 11.5135C8.51358 11.5135 8.51359 11.5135 8.51359 11.5135L17.5136 2.51355L17.5136 2.51352C17.5774 2.4496 17.6533 2.39889 17.7367 2.3643C17.8202 2.3297 17.9097 2.31189 18 2.31189C18.0903 2.31189 18.1798 2.3297 18.2633 2.3643C18.3467 2.39889 18.4226 2.4496 18.4864 2.51352L18.4864 2.51355L21.4864 5.51355ZM9 15.75H12L8.46937 11.4694C8.39975 11.5391 8.34454 11.6218 8.3069 11.7128C8.26926 11.8039 8.24992 11.9015 8.25 12V15C8.25 15.1989 8.32902 15.3897 8.46967 15.5303C8.61032 15.671 8.80109 15.75 9 15.75ZM11.6897 14.3125H11.7156L11.7339 14.2942L17.7339 8.29417L17.7781 8.24998L17.7339 8.20579L15.7942 6.2661L15.75 6.2219L15.7058 6.2661L9.70581 12.2661L9.6875 12.2844V12.3103V14.25V14.3125H9.75H11.6897ZM18.7058 7.23386L18.75 7.27806L18.7942 7.23386L19.9839 6.04417L20.0281 5.99998L19.9839 5.95579L18.0442 4.0161L18 3.9719L17.9558 4.0161L16.7661 5.20579L16.7219 5.24998L16.7661 5.29417L18.7058 7.23386ZM4.5 4.43748H4.4375V4.49998V19.5V19.5625H4.5H19.5H19.5625V19.5V12C19.5625 11.8176 19.6349 11.6428 19.7639 11.5138C19.8928 11.3849 20.0677 11.3125 20.25 11.3125C20.4323 11.3125 20.6072 11.3849 20.7361 11.5138C20.8651 11.6428 20.9375 11.8176 20.9375 12V19.5C20.9375 19.8812 20.786 20.2469 20.5165 20.5164C20.2469 20.786 19.8812 20.9375 19.5 20.9375H4.5C4.11875 20.9375 3.75312 20.786 3.48353 20.5164C3.21395 20.2469 3.0625 19.8812 3.0625 19.5V4.49998C3.0625 4.11873 3.21395 3.7531 3.48353 3.48351C3.75312 3.21393 4.11875 3.06248 4.5 3.06248H12C12.1823 3.06248 12.3572 3.13491 12.4861 3.26384C12.6151 3.39277 12.6875 3.56764 12.6875 3.74998C12.6875 3.93232 12.6151 4.10718 12.4861 4.23612C12.3572 4.36505 12.1823 4.43748 12 4.43748H4.5Z" fill="#4D8AEE" stroke="#4D8AEE" stroke-width="0.125"/>
</svg>
