<svg width="49" height="48" viewBox="0 0 49 48" fill="none" xmlns="http://www.w3.org/2000/svg">
<path d="M0.5 14C0.5 6.26801 6.76801 0 14.5 0H34.5C42.232 0 48.5 6.26801 48.5 14V34C48.5 41.732 42.232 48 34.5 48H14.5C6.76801 48 0.5 41.732 0.5 34V14Z" fill="url(#paint0_radial_364_15187)"/>
<path d="M34.25 30V28.5C34.25 28.1022 34.092 27.7206 33.8107 27.4393C33.5294 27.158 33.1478 27 32.75 27H31.25C30.8522 27 30.4706 27.158 30.1893 27.4393C29.908 27.7206 29.75 28.1022 29.75 28.5V30H25.25V28.5C25.25 28.1022 25.092 27.7206 24.8107 27.4393C24.5294 27.158 24.1478 27 23.75 27H22.25C21.8522 27 21.4706 27.158 21.1893 27.4393C20.908 27.7206 20.75 28.1022 20.75 28.5V30C20.5511 30 20.3603 30.079 20.2197 30.2197C20.079 30.3603 20 30.5511 20 30.75C20 30.9489 20.079 31.1397 20.2197 31.2803C20.3603 31.421 20.5511 31.5 20.75 31.5V33C20.75 33.3978 20.908 33.7794 21.1893 34.0607C21.4706 34.342 21.8522 34.5 22.25 34.5H23.75C24.1478 34.5 24.5294 34.342 24.8107 34.0607C25.092 33.7794 25.25 33.3978 25.25 33V31.5H29.75V33C29.75 33.3978 29.908 33.7794 30.1893 34.0607C30.4706 34.342 30.8522 34.5 31.25 34.5H32.75C33.1478 34.5 33.5294 34.342 33.8107 34.0607C34.092 33.7794 34.25 33.3978 34.25 33V31.5C34.4489 31.5 34.6397 31.421 34.7803 31.2803C34.921 31.1397 35 30.9489 35 30.75C35 30.5511 34.921 30.3603 34.7803 30.2197C34.6397 30.079 34.4489 30 34.25 30ZM23.75 33H22.25V28.5H23.75V33ZM31.25 33V28.5H32.75V33H31.25ZM17.75 23.25C17.6017 23.25 17.4567 23.294 17.3333 23.3764C17.21 23.4588 17.1139 23.5759 17.0571 23.713C17.0003 23.85 16.9855 24.0008 17.0144 24.1463C17.0434 24.2918 17.1148 24.4254 17.2197 24.5303C17.3246 24.6352 17.4582 24.7067 17.6037 24.7356C17.7492 24.7645 17.9 24.7497 18.037 24.6929C18.1741 24.6361 18.2912 24.54 18.3736 24.4167C18.456 24.2933 18.5 24.1483 18.5 24C18.5 23.8011 18.421 23.6103 18.2803 23.4697C18.1397 23.329 17.9489 23.25 17.75 23.25ZM24.5 23.25H20.75C20.5511 23.25 20.3603 23.329 20.2197 23.4697C20.079 23.6103 20 23.8011 20 24C20 24.1989 20.079 24.3897 20.2197 24.5303C20.3603 24.671 20.5511 24.75 20.75 24.75H24.5C24.6989 24.75 24.8897 24.671 25.0303 24.5303C25.171 24.3897 25.25 24.1989 25.25 24C25.25 23.8011 25.171 23.6103 25.0303 23.4697C24.8897 23.329 24.6989 23.25 24.5 23.25ZM17.75 20.25C17.6017 20.25 17.4567 20.294 17.3333 20.3764C17.21 20.4588 17.1139 20.5759 17.0571 20.713C17.0003 20.85 16.9855 21.0008 17.0144 21.1463C17.0434 21.2918 17.1148 21.4254 17.2197 21.5303C17.3246 21.6352 17.4582 21.7067 17.6037 21.7356C17.7492 21.7645 17.9 21.7497 18.037 21.6929C18.1741 21.6361 18.2912 21.54 18.3736 21.4167C18.456 21.2933 18.5 21.1483 18.5 21C18.5 20.8011 18.421 20.6103 18.2803 20.4697C18.1397 20.329 17.9489 20.25 17.75 20.25ZM24.5 20.25H20.75C20.5511 20.25 20.3603 20.329 20.2197 20.4697C20.079 20.6103 20 20.8011 20 21C20 21.1989 20.079 21.3897 20.2197 21.5303C20.3603 21.671 20.5511 21.75 20.75 21.75H24.5C24.6989 21.75 24.8897 21.671 25.0303 21.5303C25.171 21.3897 25.25 21.1989 25.25 21C25.25 20.8011 25.171 20.6103 25.0303 20.4697C24.8897 20.329 24.6989 20.25 24.5 20.25ZM17.75 26.25C17.6017 26.25 17.4567 26.294 17.3333 26.3764C17.21 26.4588 17.1139 26.5759 17.0571 26.713C17.0003 26.85 16.9855 27.0008 17.0144 27.1463C17.0434 27.2918 17.1148 27.4254 17.2197 27.5303C17.3246 27.6352 17.4582 27.7067 17.6037 27.7356C17.7492 27.7645 17.9 27.7497 18.037 27.6929C18.1741 27.6361 18.2912 27.54 18.3736 27.4167C18.456 27.2933 18.5 27.1483 18.5 27C18.5 26.8011 18.421 26.6103 18.2803 26.4697C18.1397 26.329 17.9489 26.25 17.75 26.25Z" fill="#F3F3F3"/>
<path d="M23 18C23.5967 18 24.169 17.7629 24.591 17.341C25.0129 16.919 25.25 16.3467 25.25 15.75H26.75V27.75C26.75 27.9489 26.829 28.1397 26.9697 28.2803C27.1103 28.421 27.3011 28.5 27.5 28.5C27.6989 28.5 27.8897 28.421 28.0303 28.2803C28.171 28.1397 28.25 27.9489 28.25 27.75V15.75C28.25 15.3522 28.092 14.9706 27.8107 14.6893C27.5294 14.408 27.1478 14.25 26.75 14.25H25.04C24.9091 14.0233 24.7212 13.8348 24.4949 13.7032C24.2686 13.5716 24.0118 13.5016 23.75 13.5H18.5C18.2382 13.5016 17.9814 13.5716 17.7551 13.7032C17.5288 13.8348 17.3409 14.0233 17.21 14.25H15.5C15.1022 14.25 14.7206 14.408 14.4393 14.6893C14.158 14.9706 14 15.3522 14 15.75V33C14 33.3978 14.158 33.7794 14.4393 34.0607C14.7206 34.342 15.1022 34.5 15.5 34.5H18.5C18.6989 34.5 18.8897 34.421 19.0303 34.2803C19.171 34.1397 19.25 33.9489 19.25 33.75C19.25 33.5511 19.171 33.3603 19.0303 33.2197C18.8897 33.079 18.6989 33 18.5 33H15.5V15.75H17C17 16.3467 17.2371 16.919 17.659 17.341C18.081 17.7629 18.6533 18 19.25 18H23ZM18.5 15.75V15H23.75V15.75C23.75 15.9489 23.671 16.1397 23.5303 16.2803C23.3897 16.421 23.1989 16.5 23 16.5H19.25C19.0511 16.5 18.8603 16.421 18.7197 16.2803C18.579 16.1397 18.5 15.9489 18.5 15.75Z" fill="#F3F3F3"/>
<path d="M17.75 29.25C17.6017 29.25 17.4567 29.294 17.3333 29.3764C17.21 29.4588 17.1139 29.5759 17.0571 29.713C17.0003 29.85 16.9855 30.0008 17.0144 30.1463C17.0434 30.2918 17.1148 30.4254 17.2197 30.5303C17.3246 30.6352 17.4582 30.7067 17.6037 30.7356C17.7492 30.7645 17.9 30.7497 18.037 30.6929C18.1741 30.6361 18.2912 30.54 18.3736 30.4167C18.456 30.2933 18.5 30.1483 18.5 30C18.5 29.8011 18.421 29.6103 18.2803 29.4697C18.1397 29.329 17.9489 29.25 17.75 29.25Z" fill="#F3F3F3"/>
<defs>
<radialGradient id="paint0_radial_364_15187" cx="0" cy="0" r="1" gradientUnits="userSpaceOnUse" gradientTransform="translate(7.19767 12.3158) rotate(47.5373) scale(90.3212 892.545)">
<stop stop-color="#4D8AEE"/>
<stop offset="1" stop-color="#2932FF"/>
</radialGradient>
</defs>
</svg>
