<svg width="49" height="48" viewBox="0 0 49 48" fill="none" xmlns="http://www.w3.org/2000/svg">
<path d="M0.5 14C0.5 6.26801 6.76801 0 14.5 0H34.5C42.232 0 48.5 6.26801 48.5 14V34C48.5 41.732 42.232 48 34.5 48H14.5C6.76801 48 0.5 41.732 0.5 34V14Z" fill="url(#paint0_radial_364_15165)"/>
<path fill-rule="evenodd" clip-rule="evenodd" d="M19.0343 31.1717C18.1883 31.3175 17.3202 31.097 16.6464 30.5652C15.9726 30.0333 15.5565 29.2402 15.5019 28.3835V19.1772C15.4625 18.2111 16.0501 17.3297 16.957 16.9945C19.6206 16.017 22.6111 16.7656 24.5 18.8828V32.0213C23.2338 30.957 21.046 30.8927 19.0343 31.1717Z" stroke="#EBEEF7" stroke-width="1.5" stroke-linecap="round" stroke-linejoin="round"/>
<path fill-rule="evenodd" clip-rule="evenodd" d="M29.9657 31.1717C30.8117 31.3175 31.6797 31.097 32.3536 30.5652C33.0274 30.0333 33.4435 29.2402 33.4981 28.3835V19.1772C33.5375 18.2111 32.9499 17.3297 32.043 16.9945C29.3794 16.017 26.3889 16.7656 24.5 18.8828V32.0213C25.7662 30.957 27.954 30.8927 29.9657 31.1717Z" stroke="#EBEEF7" stroke-width="1.5" stroke-linecap="round" stroke-linejoin="round"/>
<path d="M21.2857 23.7729C21.7 23.7729 22.0357 23.4372 22.0357 23.0229C22.0357 22.6087 21.7 22.2729 21.2857 22.2729V23.7729ZM18.7148 22.2729C18.3006 22.2729 17.9648 22.6087 17.9648 23.0229C17.9648 23.4372 18.3006 23.7729 18.7148 23.7729V22.2729ZM21.2857 26.3439C21.7 26.3439 22.0357 26.0081 22.0357 25.5939C22.0357 25.1797 21.7 24.8439 21.2857 24.8439V26.3439ZM18.7148 24.8439C18.3006 24.8439 17.9648 25.1797 17.9648 25.5939C17.9648 26.0081 18.3006 26.3439 18.7148 26.3439V24.8439ZM30.2842 23.7729C30.6984 23.7729 31.0342 23.4372 31.0342 23.0229C31.0342 22.6087 30.6984 22.2729 30.2842 22.2729V23.7729ZM27.7133 22.2729C27.2991 22.2729 26.9633 22.6087 26.9633 23.0229C26.9633 23.4372 27.2991 23.7729 27.7133 23.7729V22.2729ZM30.2842 26.3439C30.6984 26.3439 31.0342 26.0081 31.0342 25.5939C31.0342 25.1797 30.6984 24.8439 30.2842 24.8439V26.3439ZM27.7133 24.8439C27.2991 24.8439 26.9633 25.1797 26.9633 25.5939C26.9633 26.0081 27.2991 26.3439 27.7133 26.3439V24.8439ZM21.2857 22.2729H18.7148V23.7729H21.2857V22.2729ZM21.2857 24.8439H18.7148V26.3439H21.2857V24.8439ZM30.2842 22.2729H27.7133V23.7729H30.2842V22.2729ZM30.2842 24.8439H27.7133V26.3439H30.2842V24.8439Z" fill="#EBEEF7"/>
<defs>
<radialGradient id="paint0_radial_364_15165" cx="0" cy="0" r="1" gradientUnits="userSpaceOnUse" gradientTransform="translate(7.19767 12.3158) rotate(47.5373) scale(90.3212 892.545)">
<stop stop-color="#4D8AEE"/>
<stop offset="1" stop-color="#2932FF"/>
</radialGradient>
</defs>
</svg>
