<svg width="48" height="48" viewBox="0 0 48 48" fill="none" xmlns="http://www.w3.org/2000/svg">
<rect width="48" height="48" rx="14" fill="url(#paint0_radial_364_3498)"/>
<path d="M33.6484 31.8746C32.2206 29.4062 30.0203 27.6362 27.4525 26.7971C28.7226 26.041 29.7094 24.8888 30.2614 23.5176C30.8134 22.1463 30.8999 20.6317 30.5078 19.2065C30.1157 17.7813 29.2666 16.5242 28.0909 15.6282C26.9151 14.7323 25.4778 14.2471 23.9996 14.2471C22.5215 14.2471 21.0841 14.7323 19.9084 15.6282C18.7327 16.5242 17.8836 17.7813 17.4915 19.2065C17.0993 20.6317 17.1859 22.1463 17.7379 23.5176C18.2898 24.8888 19.2767 26.041 20.5468 26.7971C17.979 27.6352 15.7787 29.4052 14.3509 31.8746C14.2985 31.96 14.2638 32.055 14.2488 32.154C14.2337 32.253 14.2386 32.3541 14.2633 32.4511C14.2879 32.5482 14.3317 32.6394 14.3921 32.7192C14.4526 32.7991 14.5284 32.8661 14.6151 32.9162C14.7018 32.9663 14.7977 32.9985 14.8971 33.0109C14.9965 33.0234 15.0973 33.0158 15.1937 32.9886C15.2901 32.9614 15.3801 32.9152 15.4584 32.8527C15.5366 32.7902 15.6015 32.7126 15.6493 32.6246C17.4156 29.5721 20.5375 27.7496 23.9996 27.7496C27.4618 27.7496 30.5837 29.5721 32.35 32.6246C32.3977 32.7126 32.4627 32.7902 32.5409 32.8527C32.6192 32.9152 32.7092 32.9614 32.8056 32.9886C32.902 33.0158 33.0028 33.0234 33.1022 33.0109C33.2016 32.9985 33.2975 32.9663 33.3842 32.9162C33.4709 32.8661 33.5467 32.7991 33.6072 32.7192C33.6676 32.6394 33.7114 32.5482 33.736 32.4511C33.7607 32.3541 33.7656 32.253 33.7505 32.154C33.7355 32.055 33.7008 31.96 33.6484 31.8746ZM18.7496 20.9996C18.7496 19.9613 19.0576 18.9462 19.6344 18.0829C20.2113 17.2195 21.0312 16.5466 21.9906 16.1493C22.9499 15.7519 24.0055 15.6479 25.0239 15.8505C26.0423 16.0531 26.9777 16.5531 27.712 17.2873C28.4462 18.0215 28.9462 18.957 29.1488 19.9754C29.3513 20.9938 29.2474 22.0494 28.85 23.0087C28.4527 23.968 27.7797 24.788 26.9164 25.3648C26.053 25.9417 25.038 26.2496 23.9996 26.2496C22.6077 26.2481 21.2732 25.6945 20.289 24.7103C19.3047 23.726 18.7511 22.3916 18.7496 20.9996Z" fill="#EBEEF7"/>
<defs>
<radialGradient id="paint0_radial_364_3498" cx="0" cy="0" r="1" gradientUnits="userSpaceOnUse" gradientTransform="translate(6.69767 12.3158) rotate(47.5373) scale(90.3212 892.545)">
<stop stop-color="#4D8AEE"/>
<stop offset="1" stop-color="#2932FF"/>
</radialGradient>
</defs>
</svg>
