<svg width="48" height="48" viewBox="0 0 48 48" fill="none" xmlns="http://www.w3.org/2000/svg">
<rect width="48" height="48" rx="14" fill="url(#paint0_radial_364_3474)"/>
<path d="M21.1549 16.3662L21.846 14.5823C21.9625 14.2802 22.1676 14.0204 22.4343 13.8369C22.701 13.6534 23.0169 13.5547 23.3406 13.5537H24.6585C24.9822 13.5547 25.2981 13.6534 25.5648 13.8369C25.8315 14.0204 26.0366 14.2802 26.1531 14.5823L26.8442 16.3662L29.1905 17.7162L31.087 17.4269C31.4028 17.3841 31.7242 17.436 32.0104 17.5763C32.2965 17.7165 32.5345 17.9386 32.6941 18.2144L33.337 19.3394C33.5017 19.6196 33.5777 19.9432 33.5547 20.2674C33.5318 20.5916 33.4111 20.9013 33.2084 21.1555L32.0352 22.6501V25.3501L33.2405 26.8448C33.4432 27.099 33.5639 27.4086 33.5869 27.7329C33.6099 28.0571 33.5338 28.3806 33.3691 28.6609L32.7263 29.7859C32.5667 30.0616 32.3286 30.2837 32.0426 30.424C31.7563 30.5642 31.4349 30.6163 31.1191 30.5734L29.2227 30.2841L26.8763 31.6341L26.1852 33.418C26.0687 33.72 25.8637 33.9799 25.5969 34.1634C25.3303 34.3469 25.0143 34.4456 24.6906 34.4466H23.3406C23.0169 34.4456 22.701 34.3469 22.4343 34.1634C22.1676 33.9799 21.9625 33.72 21.846 33.418L21.1549 31.6341L18.8085 30.2841L16.912 30.5734C16.5963 30.6163 16.2749 30.5642 15.9887 30.424C15.7025 30.2837 15.4645 30.0616 15.3049 29.7859L14.662 28.6609C14.4973 28.3806 14.4214 28.0571 14.4444 27.7329C14.4673 27.4086 14.588 27.099 14.7906 26.8448L15.9638 25.3501V22.6501L14.7585 21.1555C14.5559 20.9013 14.4352 20.5916 14.4122 20.2674C14.3893 19.9432 14.4652 19.6196 14.6299 19.3394L15.2727 18.2144C15.4324 17.9386 15.6704 17.7165 15.9566 17.5763C16.2427 17.436 16.5641 17.3841 16.8799 17.4269L18.7763 17.7162L21.1549 16.3662ZM20.7852 24.0001C20.7852 24.6359 20.9738 25.2573 21.3269 25.7859C21.6801 26.3145 22.1821 26.7265 22.7695 26.9698C23.3568 27.213 24.0031 27.2767 24.6266 27.1527C25.2501 27.0286 25.8228 26.7225 26.2724 26.273C26.7219 25.8235 27.028 25.2507 27.1521 24.6272C27.2761 24.0037 27.2124 23.3574 26.9691 22.7701C26.7259 22.1828 26.3139 21.6807 25.7853 21.3276C25.2567 20.9744 24.6353 20.7859 23.9995 20.7859C23.1471 20.7859 22.3295 21.1245 21.7267 21.7273C21.1239 22.3301 20.7852 23.1477 20.7852 24.0001Z" stroke="#EBEEF7" stroke-width="1.5" stroke-linecap="round" stroke-linejoin="round"/>
<defs>
<radialGradient id="paint0_radial_364_3474" cx="0" cy="0" r="1" gradientUnits="userSpaceOnUse" gradientTransform="translate(6.69767 12.3158) rotate(47.5373) scale(90.3212 892.545)">
<stop stop-color="#4D8AEE"/>
<stop offset="1" stop-color="#2932FF"/>
</radialGradient>
</defs>
</svg>
