<svg width="49" height="48" viewBox="0 0 49 48" fill="none" xmlns="http://www.w3.org/2000/svg">
<path d="M0.5 14C0.5 6.26801 6.76801 0 14.5 0H34.5C42.232 0 48.5 6.26801 48.5 14V34C48.5 41.732 42.232 48 34.5 48H14.5C6.76801 48 0.5 41.732 0.5 34V14Z" fill="url(#paint0_radial_364_15173)"/>
<path fill-rule="evenodd" clip-rule="evenodd" d="M21.2712 15H27.8963C27.9652 15 28.0335 15.0044 28.1015 15.0132C30.7983 15.2018 32.8924 17.4398 32.9015 20.1432V27.858C32.8916 30.7045 30.5785 33.0053 27.7319 33H21.2712C18.4242 33.0053 16.1108 30.7038 16.1016 27.8568V20.1432C16.1108 17.2962 18.4242 14.9947 21.2712 15Z" stroke="#EBEEF7" stroke-width="1.5" stroke-linecap="round" stroke-linejoin="round"/>
<path fill-rule="evenodd" clip-rule="evenodd" d="M21.7571 18.7548L19.9679 20.1948C19.7951 20.3595 19.6979 20.5882 19.6992 20.8269C19.7006 21.0657 19.8004 21.2933 19.9751 21.456L21.1307 22.8468L25.9619 28.656C26.0424 28.7495 26.1503 28.8154 26.2703 28.8444L28.6703 29.3928C28.9876 29.4107 29.2639 29.1781 29.3003 28.8624L29.1887 26.5272C29.1804 26.4073 29.1323 26.2937 29.0519 26.2044L24.3323 20.5284L23.0603 19.0008C22.7541 18.5954 22.19 18.4889 21.7571 18.7548Z" stroke="#EBEEF7" stroke-width="1.5" stroke-linecap="round" stroke-linejoin="round"/>
<path d="M32.9025 20.9412C33.3167 20.9412 33.6525 20.6054 33.6525 20.1912C33.6525 19.777 33.3167 19.4412 32.9025 19.4412V20.9412ZM28.1025 20.1912H27.3525C27.3525 20.6054 27.6883 20.9412 28.1025 20.9412V20.1912ZM28.8525 15.0132C28.8525 14.599 28.5168 14.2632 28.1025 14.2632C27.6883 14.2632 27.3525 14.599 27.3525 15.0132H28.8525ZM25.0733 20.6619C25.1444 20.2538 24.8712 19.8654 24.4631 19.7943C24.0551 19.7232 23.6666 19.9964 23.5955 20.4045L25.0733 20.6619ZM21.2436 22.1014C20.834 22.0402 20.4522 22.3227 20.391 22.7324C20.3298 23.142 20.6123 23.5237 21.022 23.5849L21.2436 22.1014ZM32.9025 19.4412H28.1025V20.9412H32.9025V19.4412ZM28.8525 20.1912V15.0132H27.3525V20.1912H28.8525ZM23.5955 20.4045C23.4021 21.5147 22.3582 22.2679 21.2436 22.1014L21.022 23.5849C22.942 23.8717 24.7401 22.5744 25.0733 20.6619L23.5955 20.4045Z" fill="#EBEEF7"/>
<defs>
<radialGradient id="paint0_radial_364_15173" cx="0" cy="0" r="1" gradientUnits="userSpaceOnUse" gradientTransform="translate(7.19767 12.3158) rotate(47.5373) scale(90.3212 892.545)">
<stop stop-color="#4D8AEE"/>
<stop offset="1" stop-color="#2932FF"/>
</radialGradient>
</defs>
</svg>
