<svg width="48" height="48" viewBox="0 0 48 48" fill="none" xmlns="http://www.w3.org/2000/svg">
<rect width="48" height="48" rx="14" fill="url(#paint0_radial_364_14174)"/>
<path d="M25.8925 25.0974C25.6779 25.1638 25.4462 25.1439 25.3078 25.1089C24.7869 24.8481 24.2174 24.7016 23.6248 24.7016C23.0353 24.7016 22.4644 24.838 21.9414 25.0974C21.1035 23.3279 19.4501 22.2075 17.625 22.2075L17.4939 22.2091C16.1188 22.2493 15 23.5556 15 25.121V30.6201C15 31.8733 15.7227 32.9863 16.7948 33.3841L17.0358 33.4735C18.868 34.1534 20.7874 34.5 22.7196 34.5H23.2619C26.3725 34.5 29.4442 33.5956 32.145 31.8849C32.8192 31.4579 33.1455 30.594 32.9382 29.7841C32.8411 29.405 32.7921 28.8939 32.7921 28.2647C32.7921 27.1666 32.3072 23.4256 31.3507 21.011C30.5568 19.0069 29.4263 17.1834 27.9897 15.5908C27.1795 14.6927 26.0925 14.2138 24.9418 14.2521C24.4586 14.2682 23.991 14.45 23.5887 14.7473L22.7153 15.3925C22.5145 15.5409 22.3445 15.7447 22.257 15.9939C22.1176 16.3905 22.1658 16.8126 22.3615 17.1423C21.9517 17.6307 21.9612 18.3975 22.3901 18.8729L23.8901 20.5356C23.9946 20.6515 24.1187 20.7434 24.2552 20.8061C24.3918 20.8688 24.5381 20.901 24.6859 20.901L26.582 20.9006C26.5776 21.3364 26.5096 23.1666 26.4398 23.7059L26.4399 23.7082C26.3977 24.0331 26.3538 24.381 26.3183 24.7373C26.2246 24.9364 26.064 25.0444 25.8925 25.0974ZM25.8925 25.0974C26.1885 25.5059 26.6382 26.638 26.0697 27.8982" stroke="#EBEEF7" stroke-width="1.5" stroke-linecap="round" stroke-linejoin="round"/>
<defs>
<radialGradient id="paint0_radial_364_14174" cx="0" cy="0" r="1" gradientUnits="userSpaceOnUse" gradientTransform="translate(6.69767 12.3158) rotate(47.5373) scale(90.3212 892.545)">
<stop stop-color="#4D8AEE"/>
<stop offset="1" stop-color="#2932FF"/>
</radialGradient>
</defs>
</svg>
