<svg width="48" height="48" viewBox="0 0 48 48" fill="none" xmlns="http://www.w3.org/2000/svg">
<rect width="48" height="48" rx="14" fill="url(#paint0_radial_364_14738)"/>
<path fill-rule="evenodd" clip-rule="evenodd" d="M26.2863 23.5718C26.2863 24.8342 25.2629 25.8576 24.0006 25.8576C22.7382 25.8576 21.7148 24.8342 21.7148 23.5718C21.7148 22.3095 22.7382 21.2861 24.0006 21.2861C25.2629 21.2861 26.2863 22.3095 26.2863 23.5718Z" stroke="#EBEEF7" stroke-width="1.5" stroke-linecap="round" stroke-linejoin="round"/>
<path d="M26.2857 16.5357C25.8715 16.5357 25.5357 16.8715 25.5357 17.2857C25.5357 17.6999 25.8715 18.0357 26.2857 18.0357V16.5357ZM21.7143 18.0357C22.1285 18.0357 22.4643 17.6999 22.4643 17.2857C22.4643 16.8715 22.1285 16.5357 21.7143 16.5357V18.0357ZM27.0357 17.2857C27.0357 16.8715 26.6999 16.5357 26.2857 16.5357C25.8715 16.5357 25.5357 16.8715 25.5357 17.2857H27.0357ZM25.5357 18.4285C25.5357 18.8428 25.8715 19.1785 26.2857 19.1785C26.6999 19.1785 27.0357 18.8428 27.0357 18.4285H25.5357ZM25.5357 17.2857C25.5357 17.6999 25.8715 18.0357 26.2857 18.0357C26.6999 18.0357 27.0357 17.6999 27.0357 17.2857H25.5357ZM27.0357 15C27.0357 14.5858 26.6999 14.25 26.2857 14.25C25.8715 14.25 25.5357 14.5858 25.5357 15H27.0357ZM26.2857 18.0357C26.6999 18.0357 27.0357 17.6999 27.0357 17.2857C27.0357 16.8715 26.6999 16.5357 26.2857 16.5357V18.0357ZM21.7143 16.5357C21.3001 16.5357 20.9643 16.8715 20.9643 17.2857C20.9643 17.6999 21.3001 18.0357 21.7143 18.0357V16.5357ZM22.4643 17.2857C22.4643 16.8715 22.1285 16.5357 21.7143 16.5357C21.3001 16.5357 20.9643 16.8715 20.9643 17.2857H22.4643ZM20.9643 18.4285C20.9643 18.8428 21.3001 19.1785 21.7143 19.1785C22.1285 19.1785 22.4643 18.8428 22.4643 18.4285H20.9643ZM20.9643 17.2857C20.9643 17.6999 21.3001 18.0357 21.7143 18.0357C22.1285 18.0357 22.4643 17.6999 22.4643 17.2857H20.9643ZM22.4643 15C22.4643 14.5858 22.1285 14.25 21.7143 14.25C21.3001 14.25 20.9643 14.5858 20.9643 15H22.4643ZM16.6939 30.9706C16.3621 31.2185 16.2941 31.6885 16.5421 32.0203C16.79 32.3521 17.26 32.4201 17.5918 32.1722L16.6939 30.9706ZM30.4082 32.1722C30.74 32.4201 31.21 32.3521 31.4579 32.0203C31.7059 31.6885 31.6379 31.2185 31.3061 30.9706L30.4082 32.1722ZM26.2857 18.0357H27.4286V16.5357H26.2857V18.0357ZM27.4286 18.0357C29.5391 18.0357 31.25 19.7466 31.25 21.8571H32.75C32.75 18.9182 30.3675 16.5357 27.4286 16.5357V18.0357ZM31.25 21.8571V28.7143H32.75V21.8571H31.25ZM31.25 28.7143C31.25 30.8248 29.5391 32.5357 27.4286 32.5357V34.0357C30.3675 34.0357 32.75 31.6532 32.75 28.7143H31.25ZM27.4286 32.5357H20.5714V34.0357H27.4286V32.5357ZM20.5714 32.5357C18.4609 32.5357 16.75 30.8248 16.75 28.7143H15.25C15.25 31.6532 17.6325 34.0357 20.5714 34.0357V32.5357ZM16.75 28.7143V21.8571H15.25V28.7143H16.75ZM16.75 21.8571C16.75 19.7466 18.4609 18.0357 20.5714 18.0357V16.5357C17.6325 16.5357 15.25 18.9182 15.25 21.8571H16.75ZM20.5714 18.0357H21.7143V16.5357H20.5714V18.0357ZM25.5357 17.2857V18.4285H27.0357V17.2857H25.5357ZM27.0357 17.2857V15H25.5357V17.2857H27.0357ZM26.2857 16.5357H21.7143V18.0357H26.2857V16.5357ZM20.9643 17.2857V18.4285H22.4643V17.2857H20.9643ZM22.4643 17.2857V15H20.9643V17.2857H22.4643ZM17.5918 32.1722C21.3921 29.3326 26.6079 29.3326 30.4082 32.1722L31.3061 30.9706C26.9733 27.7332 21.0267 27.7332 16.6939 30.9706L17.5918 32.1722Z" fill="#EBEEF7"/>
<defs>
<radialGradient id="paint0_radial_364_14738" cx="0" cy="0" r="1" gradientUnits="userSpaceOnUse" gradientTransform="translate(6.69767 12.3158) rotate(47.5373) scale(90.3212 892.545)">
<stop stop-color="#4D8AEE"/>
<stop offset="1" stop-color="#2932FF"/>
</radialGradient>
</defs>
</svg>
