<svg width="49" height="48" viewBox="0 0 49 48" fill="none" xmlns="http://www.w3.org/2000/svg">
<path d="M0.5 14C0.5 6.26801 6.76801 0 14.5 0H34.5C42.232 0 48.5 6.26801 48.5 14V34C48.5 41.732 42.232 48 34.5 48H14.5C6.76801 48 0.5 41.732 0.5 34V14Z" fill="url(#paint0_radial_364_15169)"/>
<path fill-rule="evenodd" clip-rule="evenodd" d="M26.7863 23.5714C26.7863 24.8337 25.7629 25.8571 24.5006 25.8571C23.2382 25.8571 22.2148 24.8337 22.2148 23.5714C22.2148 22.309 23.2382 21.2856 24.5006 21.2856C25.7629 21.2856 26.7863 22.309 26.7863 23.5714Z" stroke="#EBEEF7" stroke-width="1.5" stroke-linecap="round" stroke-linejoin="round"/>
<path d="M26.7857 16.5357C26.3715 16.5357 26.0357 16.8715 26.0357 17.2857C26.0357 17.6999 26.3715 18.0357 26.7857 18.0357V16.5357ZM22.2143 18.0357C22.6285 18.0357 22.9643 17.6999 22.9643 17.2857C22.9643 16.8715 22.6285 16.5357 22.2143 16.5357V18.0357ZM27.5357 17.2857C27.5357 16.8715 27.1999 16.5357 26.7857 16.5357C26.3715 16.5357 26.0357 16.8715 26.0357 17.2857H27.5357ZM26.0357 18.4286C26.0357 18.8428 26.3715 19.1786 26.7857 19.1786C27.1999 19.1786 27.5357 18.8428 27.5357 18.4286H26.0357ZM26.0357 17.2857C26.0357 17.6999 26.3715 18.0357 26.7857 18.0357C27.1999 18.0357 27.5357 17.6999 27.5357 17.2857H26.0357ZM27.5357 15C27.5357 14.5858 27.1999 14.25 26.7857 14.25C26.3715 14.25 26.0357 14.5858 26.0357 15H27.5357ZM26.7857 18.0357C27.1999 18.0357 27.5357 17.6999 27.5357 17.2857C27.5357 16.8715 27.1999 16.5357 26.7857 16.5357V18.0357ZM22.2143 16.5357C21.8001 16.5357 21.4643 16.8715 21.4643 17.2857C21.4643 17.6999 21.8001 18.0357 22.2143 18.0357V16.5357ZM22.9643 17.2857C22.9643 16.8715 22.6285 16.5357 22.2143 16.5357C21.8001 16.5357 21.4643 16.8715 21.4643 17.2857H22.9643ZM21.4643 18.4286C21.4643 18.8428 21.8001 19.1786 22.2143 19.1786C22.6285 19.1786 22.9643 18.8428 22.9643 18.4286H21.4643ZM21.4643 17.2857C21.4643 17.6999 21.8001 18.0357 22.2143 18.0357C22.6285 18.0357 22.9643 17.6999 22.9643 17.2857H21.4643ZM22.9643 15C22.9643 14.5858 22.6285 14.25 22.2143 14.25C21.8001 14.25 21.4643 14.5858 21.4643 15H22.9643ZM17.1939 30.9706C16.8621 31.2186 16.7941 31.6885 17.0421 32.0204C17.29 32.3522 17.76 32.4202 18.0918 32.1722L17.1939 30.9706ZM30.9082 32.1722C31.24 32.4202 31.71 32.3522 31.958 32.0204C32.2059 31.6885 32.1379 31.2186 31.8061 30.9706L30.9082 32.1722ZM26.7857 18.0357H27.9286V16.5357H26.7857V18.0357ZM27.9286 18.0357C30.0391 18.0357 31.75 19.7466 31.75 21.8571H33.25C33.25 18.9182 30.8675 16.5357 27.9286 16.5357V18.0357ZM31.75 21.8571V28.7143H33.25V21.8571H31.75ZM31.75 28.7143C31.75 30.8248 30.0391 32.5357 27.9286 32.5357V34.0357C30.8675 34.0357 33.25 31.6532 33.25 28.7143H31.75ZM27.9286 32.5357H21.0714V34.0357H27.9286V32.5357ZM21.0714 32.5357C18.9609 32.5357 17.25 30.8248 17.25 28.7143H15.75C15.75 31.6532 18.1325 34.0357 21.0714 34.0357V32.5357ZM17.25 28.7143V21.8571H15.75V28.7143H17.25ZM17.25 21.8571C17.25 19.7466 18.9609 18.0357 21.0714 18.0357V16.5357C18.1325 16.5357 15.75 18.9182 15.75 21.8571H17.25ZM21.0714 18.0357H22.2143V16.5357H21.0714V18.0357ZM26.0357 17.2857V18.4286H27.5357V17.2857H26.0357ZM27.5357 17.2857V15H26.0357V17.2857H27.5357ZM26.7857 16.5357H22.2143V18.0357H26.7857V16.5357ZM21.4643 17.2857V18.4286H22.9643V17.2857H21.4643ZM22.9643 17.2857V15H21.4643V17.2857H22.9643ZM18.0918 32.1722C21.8921 29.3327 27.1079 29.3327 30.9082 32.1722L31.8061 30.9706C27.4733 27.7332 21.5267 27.7332 17.1939 30.9706L18.0918 32.1722Z" fill="#EBEEF7"/>
<defs>
<radialGradient id="paint0_radial_364_15169" cx="0" cy="0" r="1" gradientUnits="userSpaceOnUse" gradientTransform="translate(7.19767 12.3158) rotate(47.5373) scale(90.3212 892.545)">
<stop stop-color="#4D8AEE"/>
<stop offset="1" stop-color="#2932FF"/>
</radialGradient>
</defs>
</svg>
