<svg width="29" height="29" viewBox="0 0 29 29" fill="none" xmlns="http://www.w3.org/2000/svg">
<path d="M14.4887 14.9302C14.2434 14.9294 14.0453 14.7299 14.046 14.4846C14.0468 14.2394 14.2463 14.0412 14.4916 14.042" stroke="#EBEEF7" stroke-width="1.5" stroke-linecap="round" stroke-linejoin="round"/>
<path d="M14.4885 14.9302C14.7337 14.931 14.9332 14.7328 14.934 14.4875C14.9348 14.2423 14.7366 14.0428 14.4913 14.042" stroke="#EBEEF7" stroke-width="1.5" stroke-linecap="round" stroke-linejoin="round"/>
<path d="M9.60347 14.9144C9.35819 14.9137 9.16 14.7142 9.16079 14.4689C9.16159 14.2236 9.36107 14.0254 9.60635 14.0262" stroke="#EBEEF7" stroke-width="1.5" stroke-linecap="round" stroke-linejoin="round"/>
<path d="M9.6032 14.9145C9.84848 14.9153 10.048 14.7171 10.0488 14.4718C10.0495 14.2265 9.85135 14.027 9.60608 14.0262" stroke="#EBEEF7" stroke-width="1.5" stroke-linecap="round" stroke-linejoin="round"/>
<path d="M19.374 14.9461C19.1287 14.9453 18.9305 14.7458 18.9313 14.5005C18.9321 14.2552 19.1316 14.057 19.3769 14.0578" stroke="#EBEEF7" stroke-width="1.5" stroke-linecap="round" stroke-linejoin="round"/>
<path d="M19.3738 14.9461C19.6191 14.9469 19.8187 14.7487 19.8195 14.5034C19.8203 14.2581 19.622 14.0587 19.3767 14.0579" stroke="#EBEEF7" stroke-width="1.5" stroke-linecap="round" stroke-linejoin="round"/>
<path d="M14.5204 3.04668C12.4512 3.04063 10.419 3.59595 8.64037 4.65351C6.86176 5.71108 5.40331 7.23127 4.42035 9.05218C3.43739 10.8731 2.96675 12.9265 3.05854 14.9937C3.15033 17.061 3.80112 19.0646 4.9416 20.7912L3.00674 25.8889L9.43428 24.7481C10.9787 25.509 12.6749 25.9115 14.3964 25.9256C16.118 25.9397 17.8206 25.5651 19.3772 24.8295C20.9338 24.0941 22.3045 23.0167 23.3866 21.6777C24.4689 20.3389 25.2352 18.7729 25.6279 17.0967C26.0208 15.4204 26.0303 13.6772 25.6556 11.9968C25.2809 10.3164 24.5319 8.74225 23.4641 7.39169C22.3964 6.04112 21.0376 4.94898 19.489 4.19666C17.9405 3.44433 16.2421 3.05124 14.5204 3.04668Z" stroke="#EBEEF7" stroke-width="1.5" stroke-linecap="round" stroke-linejoin="round"/>
</svg>
