<svg width="46" height="46" viewBox="0 0 46 46" fill="none" xmlns="http://www.w3.org/2000/svg">
<rect width="46" height="46" rx="14" fill="url(#paint0_radial_4551_3436)"/>
<path d="M30.7595 15.2406C30.6023 15.0835 30.4061 14.9712 30.1911 14.9152C29.976 14.8591 29.7499 14.8615 29.5361 14.9219H29.5243L14.529 19.4719C14.2849 19.5421 14.068 19.685 13.9072 19.8815C13.7463 20.0781 13.6491 20.319 13.6286 20.5721C13.6081 20.8253 13.6651 21.0787 13.7922 21.2986C13.9193 21.5185 14.1104 21.6945 14.34 21.8031L21.029 24.9711L24.197 31.6602C24.297 31.8744 24.4562 32.0555 24.6559 32.1822C24.8555 32.3088 25.0872 32.3757 25.3236 32.375C25.3595 32.375 25.3954 32.3734 25.4314 32.3703C25.6836 32.3499 25.9236 32.2528 26.1191 32.0921C26.3146 31.9313 26.4563 31.7146 26.5251 31.4711L31.072 16.4758C31.072 16.4719 31.072 16.468 31.072 16.4641C31.1332 16.2507 31.1365 16.025 31.0816 15.81C31.0267 15.595 30.9155 15.3984 30.7595 15.2406ZM25.3306 31.1133L25.3267 31.1242L22.2517 24.6328L25.9423 20.9414C26.0546 20.8232 26.1162 20.6659 26.1142 20.5029C26.1121 20.3399 26.0464 20.1842 25.9311 20.069C25.8159 19.9537 25.6602 19.8881 25.4972 19.886C25.3342 19.8839 25.1769 19.9455 25.0587 20.0578L21.3673 23.7484L14.8751 20.6734H14.8861L29.8751 16.125L25.3306 31.1133Z" fill="#EBEEF7"/>
<defs>
<radialGradient id="paint0_radial_4551_3436" cx="0" cy="0" r="1" gradientUnits="userSpaceOnUse" gradientTransform="translate(6.4186 11.8027) rotate(47.5373) scale(86.5579 855.356)">
<stop stop-color="#4D8AEE"/>
<stop offset="1" stop-color="#2932FF"/>
</radialGradient>
</defs>
</svg>
