<svg width="28" height="28" viewBox="0 0 28 28" fill="none" xmlns="http://www.w3.org/2000/svg">
<path d="M14.4375 2.625C11.5377 2.62818 8.75753 3.78155 6.70704 5.83204C4.65655 7.88253 3.50318 10.6627 3.5 13.5625V22.7861C3.50058 23.2405 3.68134 23.6761 4.00263 23.9974C4.32393 24.3187 4.75953 24.4994 5.21391 24.5H14.4375C17.3383 24.5 20.1203 23.3477 22.1715 21.2965C24.2227 19.2453 25.375 16.4633 25.375 13.5625C25.375 10.6617 24.2227 7.8797 22.1715 5.82852C20.1203 3.77734 17.3383 2.625 14.4375 2.625ZM14.4375 22.75H5.25V13.5625C5.25 11.7454 5.78884 9.96908 6.79837 8.4582C7.80791 6.94732 9.2428 5.76974 10.9216 5.07436C12.6004 4.37898 14.4477 4.19703 16.2299 4.55154C18.0121 4.90604 19.6491 5.78106 20.934 7.06596C22.2189 8.35085 23.094 9.98791 23.4485 11.7701C23.803 13.5523 23.621 15.3996 22.9256 17.0784C22.2303 18.7572 21.0527 20.1921 19.5418 21.2016C18.0309 22.2112 16.2546 22.75 14.4375 22.75ZM15.75 14C15.75 14.2596 15.673 14.5133 15.5288 14.7292C15.3846 14.945 15.1796 15.1133 14.9398 15.2126C14.6999 15.3119 14.436 15.3379 14.1814 15.2873C13.9268 15.2366 13.693 15.1116 13.5094 14.9281C13.3259 14.7445 13.2009 14.5107 13.1502 14.2561C13.0996 14.0015 13.1256 13.7376 13.2249 13.4977C13.3242 13.2579 13.4925 13.0529 13.7083 12.9087C13.9242 12.7645 14.1779 12.6875 14.4375 12.6875C14.7856 12.6875 15.1194 12.8258 15.3656 13.0719C15.6117 13.3181 15.75 13.6519 15.75 14ZM10.9375 14C10.9375 14.2596 10.8605 14.5133 10.7163 14.7292C10.5721 14.945 10.3671 15.1133 10.1273 15.2126C9.88744 15.3119 9.62354 15.3379 9.36894 15.2873C9.11434 15.2366 8.88048 15.1116 8.69692 14.9281C8.51337 14.7445 8.38836 14.5107 8.33772 14.2561C8.28708 14.0015 8.31307 13.7376 8.41241 13.4977C8.51175 13.2579 8.67998 13.0529 8.89581 12.9087C9.11165 12.7645 9.36541 12.6875 9.625 12.6875C9.9731 12.6875 10.3069 12.8258 10.5531 13.0719C10.7992 13.3181 10.9375 13.6519 10.9375 14ZM20.5625 14C20.5625 14.2596 20.4855 14.5133 20.3413 14.7292C20.1971 14.945 19.9921 15.1133 19.7523 15.2126C19.5124 15.3119 19.2485 15.3379 18.9939 15.2873C18.7393 15.2366 18.5055 15.1116 18.3219 14.9281C18.1384 14.7445 18.0134 14.5107 17.9627 14.2561C17.9121 14.0015 17.9381 13.7376 18.0374 13.4977C18.1367 13.2579 18.305 13.0529 18.5208 12.9087C18.7367 12.7645 18.9904 12.6875 19.25 12.6875C19.5981 12.6875 19.9319 12.8258 20.1781 13.0719C20.4242 13.3181 20.5625 13.6519 20.5625 14Z" fill="#EBEEF7"/>
</svg>
