<svg width="343" height="204" viewBox="0 0 343 204" fill="none" xmlns="http://www.w3.org/2000/svg">
<path d="M0 14C0 6.26802 6.26801 0 14 0H329C336.732 0 343 6.26801 343 14V190C343 197.732 336.732 204 329 204H14C6.26801 204 0 197.732 0 190V14Z" fill="url(#paint0_radial_3370_163239)"/>
<path d="M17.12 33V21.48H21.568C22.2133 21.48 22.776 21.6133 23.256 21.88C23.736 22.1467 24.1093 22.5067 24.376 22.96C24.6427 23.408 24.776 23.904 24.776 24.448C24.776 25.0667 24.6107 25.6187 24.28 26.104C23.9493 26.584 23.5067 26.9173 22.952 27.104L22.936 26.712C23.6827 26.9253 24.2693 27.2987 24.696 27.832C25.1227 28.3653 25.336 29.0107 25.336 29.768C25.336 30.4347 25.1947 31.0107 24.912 31.496C24.6293 31.976 24.232 32.3467 23.72 32.608C23.208 32.8693 22.6133 33 21.936 33H17.12ZM18.304 31.872H21.648C22.1173 31.872 22.5387 31.7893 22.912 31.624C23.2853 31.4533 23.5787 31.2133 23.792 30.904C24.0107 30.5947 24.12 30.2213 24.12 29.784C24.12 29.3573 24.0213 28.9733 23.824 28.632C23.6267 28.2907 23.3573 28.0187 23.016 27.816C22.68 27.608 22.296 27.504 21.864 27.504H18.304V31.872ZM18.304 26.392H21.56C21.928 26.392 22.264 26.3093 22.568 26.144C22.872 25.9733 23.112 25.7413 23.288 25.448C23.4693 25.1547 23.56 24.816 23.56 24.432C23.56 23.888 23.3707 23.4453 22.992 23.104C22.6187 22.7627 22.1413 22.592 21.56 22.592H18.304V26.392ZM30.5885 33.24C29.7458 33.24 29.0152 33.0533 28.3965 32.68C27.7832 32.3067 27.3058 31.7813 26.9645 31.104C26.6232 30.4267 26.4525 29.632 26.4525 28.72C26.4525 27.776 26.6205 26.96 26.9565 26.272C27.2925 25.584 27.7645 25.0533 28.3725 24.68C28.9858 24.3067 29.7085 24.12 30.5405 24.12C31.3938 24.12 32.1218 24.3173 32.7245 24.712C33.3272 25.1013 33.7832 25.6613 34.0925 26.392C34.4018 27.1227 34.5432 27.9947 34.5165 29.008H33.3165V28.592C33.2952 27.472 33.0525 26.6267 32.5885 26.056C32.1298 25.4853 31.4578 25.2 30.5725 25.2C29.6445 25.2 28.9325 25.5013 28.4365 26.104C27.9458 26.7067 27.7005 27.5653 27.7005 28.68C27.7005 29.768 27.9458 30.6133 28.4365 31.216C28.9325 31.8133 29.6338 32.112 30.5405 32.112C31.1592 32.112 31.6978 31.9707 32.1565 31.688C32.6205 31.4 32.9858 30.9867 33.2525 30.448L34.3485 30.872C34.0072 31.624 33.5032 32.208 32.8365 32.624C32.1752 33.0347 31.4258 33.24 30.5885 33.24ZM27.2845 29.008V28.024H33.8845V29.008H27.2845ZM39.8759 33.24C39.0065 33.24 38.2705 33.0453 37.6679 32.656C37.0652 32.2667 36.6065 31.7307 36.2919 31.048C35.9825 30.36 35.8225 29.5707 35.8119 28.68C35.8225 27.7733 35.9879 26.9787 36.3079 26.296C36.6279 25.608 37.0892 25.0747 37.6919 24.696C38.2945 24.312 39.0252 24.12 39.8839 24.12C40.7585 24.12 41.5185 24.3333 42.1639 24.76C42.8145 25.1867 43.2599 25.7707 43.4999 26.512L42.3479 26.88C42.1452 26.3627 41.8225 25.9627 41.3799 25.68C40.9425 25.392 40.4412 25.248 39.8759 25.248C39.2412 25.248 38.7159 25.3947 38.2999 25.688C37.8839 25.976 37.5745 26.3787 37.3719 26.896C37.1692 27.4133 37.0652 28.008 37.0599 28.68C37.0705 29.7147 37.3105 30.5467 37.7799 31.176C38.2492 31.8 38.9479 32.112 39.8759 32.112C40.4625 32.112 40.9612 31.9787 41.3719 31.712C41.7879 31.44 42.1025 31.0453 42.3159 30.528L43.4999 30.88C43.1799 31.648 42.7105 32.2347 42.0919 32.64C41.4732 33.04 40.7345 33.24 39.8759 33.24Z" fill="#EBEEF7"/>
<path d="M321.6 18.3999H308.4C306.746 18.3999 305.4 19.7456 305.4 21.3999V34.5999C305.4 36.2542 306.746 37.5999 308.4 37.5999H321.6C323.254 37.5999 324.6 36.2542 324.6 34.5999V21.3999C324.6 19.7456 323.254 18.3999 321.6 18.3999ZM323.4 34.5999C323.4 35.5925 322.593 36.3999 321.6 36.3999H308.4C307.407 36.3999 306.6 35.5925 306.6 34.5999V21.3999C306.6 20.4073 307.407 19.5999 308.4 19.5999H321.6C322.593 19.5999 323.4 20.4073 323.4 21.3999V34.5999Z" fill="#EBEEF7"/>
<path d="M310.055 23.0865C310.221 22.9114 310.395 22.746 310.575 22.5904C311.215 22.0375 311.937 21.6096 312.713 21.3188C312.439 21.6065 312.223 21.9409 312.075 22.3028L311.842 22.0804C311.924 22.1589 311.998 22.2428 312.064 22.331C311.986 22.5277 311.927 22.7324 311.889 22.942L311.359 23.4988L311.84 24.0554V24.782L310.946 23.9329L310.49 23.4999L310.49 23.4998L310.055 23.0865ZM310.055 23.0865C309.827 23.3265 309.837 23.7062 310.076 23.9344L310.532 24.3679L312.79 26.5178L313.04 26.7557V26.2554V25.9369L312.337 25.2753H311.84V24.7823L310.946 23.9329L310.49 23.4999L310.49 23.4999L310.055 23.0865ZM314.944 25.0344L314.581 24.688C314.718 24.6623 314.858 24.6449 315 24.6361C315.072 24.6316 315.145 24.6294 315.218 24.6294L315.218 25.1815L315.218 25.2753L315.218 25.4476C315.146 25.4557 315.073 25.4598 315 25.4598C314.858 25.4598 314.719 25.4445 314.583 25.4149L314.716 25.2753L314.805 25.1815L314.945 25.0347L314.944 25.0344ZM314.944 25.0344C314.812 24.908 314.663 24.802 314.503 24.7183L314.4 24.827V25.1815V25.2753C314.355 25.2885 314.312 25.3028 314.268 25.3181C314.321 25.3394 314.375 25.3584 314.429 25.375C314.48 25.3903 314.531 25.4036 314.582 25.4148L314.715 25.2753L314.804 25.1815L314.944 25.0344ZM314.668 23.8313L314.4 24.0998L314.668 23.8313ZM314.668 23.8313C314.731 23.8232 314.793 23.8164 314.856 23.811M314.668 23.8313C314.578 23.8431 314.489 23.8579 314.4 23.8755L314.856 23.811M314.856 23.811C314.904 23.8069 314.952 23.8037 315 23.8012C315.072 23.7975 315.145 23.7957 315.218 23.7958C315.218 23.7958 315.218 23.7958 315.218 23.7958L315.218 23.9679M314.856 23.811L315.218 23.9679M315.218 23.9679L315.218 23.9674L315.221 23.9642L315.227 23.9583L315.227 23.7958C315.226 23.7958 315.224 23.7958 315.223 23.7958L315.218 23.9679ZM313.593 26.4534L313.593 26.4538L313.593 26.4534ZM313.593 26.4534L313.593 26.4539L313.593 26.4534ZM313.599 26.4667L313.597 26.461L313.599 26.4667ZM313.599 26.4667L313.608 27.054L313.599 26.4667ZM313.04 25.9278L312.353 25.2753H312.893L313.032 25.4365C313.035 25.4343 313.037 25.4322 313.04 25.43V25.9278ZM316.784 26.9749L316.784 26.9721L316.784 26.9749Z" fill="#EBEEF7" stroke="#EBEEF7" stroke-width="5.12"/>
<path d="M18.95 62.15C18.49 62.15 18.0833 62.0583 17.73 61.875C17.3767 61.6883 17.1 61.43 16.9 61.1C16.7 60.77 16.6 60.385 16.6 59.945C16.6 59.515 16.7017 59.1267 16.905 58.78C17.1117 58.4333 17.4217 58.1667 17.835 57.98L17.82 58.305C17.4833 58.1417 17.225 57.9117 17.045 57.615C16.865 57.315 16.775 56.9833 16.775 56.62C16.775 56.2133 16.8683 55.8633 17.055 55.57C17.2417 55.2767 17.4983 55.05 17.825 54.89C18.1517 54.73 18.5267 54.65 18.95 54.65C19.3733 54.65 19.7483 54.73 20.075 54.89C20.4017 55.05 20.6583 55.2767 20.845 55.57C21.0317 55.8633 21.125 56.2133 21.125 56.62C21.125 56.9833 21.04 57.3133 20.87 57.61C20.7 57.9033 20.4383 58.135 20.085 58.305L20.065 57.985C20.4783 58.165 20.7883 58.43 20.995 58.78C21.205 59.1267 21.31 59.515 21.31 59.945C21.31 60.385 21.2083 60.77 21.005 61.1C20.805 61.43 20.5267 61.6883 20.17 61.875C19.8167 62.0583 19.41 62.15 18.95 62.15ZM18.95 61.3C19.37 61.3 19.71 61.185 19.97 60.955C20.2333 60.7217 20.365 60.385 20.365 59.945C20.365 59.5017 20.235 59.165 19.975 58.935C19.7183 58.7017 19.3767 58.585 18.95 58.585C18.5267 58.585 18.185 58.7017 17.925 58.935C17.6683 59.165 17.54 59.5017 17.54 59.945C17.54 60.385 17.67 60.7217 17.93 60.955C18.19 61.185 18.53 61.3 18.95 61.3ZM18.95 57.73C19.3167 57.73 19.6133 57.6383 19.84 57.455C20.0667 57.2683 20.18 56.99 20.18 56.62C20.18 56.25 20.0667 55.9733 19.84 55.79C19.6133 55.6033 19.3167 55.51 18.95 55.51C18.5867 55.51 18.29 55.6033 18.06 55.79C17.8333 55.9733 17.72 56.25 17.72 56.62C17.72 56.99 17.8333 57.2683 18.06 57.455C18.29 57.6383 18.5867 57.73 18.95 57.73ZM24.7382 62.15C24.3682 62.15 24.0232 62.0733 23.7032 61.92C23.3865 61.7667 23.1149 61.5567 22.8882 61.29C22.6649 61.02 22.5049 60.71 22.4082 60.36L23.2632 60.13C23.3232 60.3667 23.4299 60.5717 23.5832 60.745C23.7365 60.915 23.9149 61.0483 24.1182 61.145C24.3249 61.2383 24.5399 61.285 24.7632 61.285C25.0565 61.285 25.3199 61.215 25.5532 61.075C25.7899 60.9317 25.9765 60.7433 26.1132 60.51C26.2499 60.2733 26.3182 60.015 26.3182 59.735C26.3182 59.445 26.2465 59.1833 26.1032 58.95C25.9632 58.7133 25.7749 58.5267 25.5382 58.39C25.3015 58.2533 25.0432 58.185 24.7632 58.185C24.4465 58.185 24.1749 58.2517 23.9482 58.385C23.7249 58.515 23.5482 58.675 23.4182 58.865L22.6282 58.565L22.8482 54.8H26.7132V55.645H23.2782L23.6732 55.275L23.4882 58.29L23.2932 58.035C23.4932 57.8217 23.7315 57.6567 24.0082 57.54C24.2882 57.4233 24.5732 57.365 24.8632 57.365C25.3099 57.365 25.7099 57.47 26.0632 57.68C26.4165 57.8867 26.6965 58.17 26.9032 58.53C27.1099 58.8867 27.2132 59.2883 27.2132 59.735C27.2132 60.1783 27.0999 60.5833 26.8732 60.95C26.6465 61.3133 26.3449 61.605 25.9682 61.825C25.5949 62.0417 25.1849 62.15 24.7382 62.15Z" fill="#EBEEF7" fill-opacity="0.3"/>
<path d="M40 58H327" stroke="#EBEEF7" stroke-opacity="0.1" stroke-dasharray="4 4"/>
<path d="M18.95 78.15C18.49 78.15 18.0833 78.0583 17.73 77.875C17.3767 77.6883 17.1 77.43 16.9 77.1C16.7 76.77 16.6 76.385 16.6 75.945C16.6 75.515 16.7017 75.1267 16.905 74.78C17.1117 74.4333 17.4217 74.1667 17.835 73.98L17.82 74.305C17.4833 74.1417 17.225 73.9117 17.045 73.615C16.865 73.315 16.775 72.9833 16.775 72.62C16.775 72.2133 16.8683 71.8633 17.055 71.57C17.2417 71.2767 17.4983 71.05 17.825 70.89C18.1517 70.73 18.5267 70.65 18.95 70.65C19.3733 70.65 19.7483 70.73 20.075 70.89C20.4017 71.05 20.6583 71.2767 20.845 71.57C21.0317 71.8633 21.125 72.2133 21.125 72.62C21.125 72.9833 21.04 73.3133 20.87 73.61C20.7 73.9033 20.4383 74.135 20.085 74.305L20.065 73.985C20.4783 74.165 20.7883 74.43 20.995 74.78C21.205 75.1267 21.31 75.515 21.31 75.945C21.31 76.385 21.2083 76.77 21.005 77.1C20.805 77.43 20.5267 77.6883 20.17 77.875C19.8167 78.0583 19.41 78.15 18.95 78.15ZM18.95 77.3C19.37 77.3 19.71 77.185 19.97 76.955C20.2333 76.7217 20.365 76.385 20.365 75.945C20.365 75.5017 20.235 75.165 19.975 74.935C19.7183 74.7017 19.3767 74.585 18.95 74.585C18.5267 74.585 18.185 74.7017 17.925 74.935C17.6683 75.165 17.54 75.5017 17.54 75.945C17.54 76.385 17.67 76.7217 17.93 76.955C18.19 77.185 18.53 77.3 18.95 77.3ZM18.95 73.73C19.3167 73.73 19.6133 73.6383 19.84 73.455C20.0667 73.2683 20.18 72.99 20.18 72.62C20.18 72.25 20.0667 71.9733 19.84 71.79C19.6133 71.6033 19.3167 71.51 18.95 71.51C18.5867 71.51 18.29 71.6033 18.06 71.79C17.8333 71.9733 17.72 72.25 17.72 72.62C17.72 72.99 17.8333 73.2683 18.06 73.455C18.29 73.6383 18.5867 73.73 18.95 73.73ZM25.0382 78.15C24.5715 78.15 24.1549 78.045 23.7882 77.835C23.4249 77.6217 23.1365 77.3333 22.9232 76.97C22.7132 76.6033 22.6082 76.1867 22.6082 75.72V73.08C22.6082 72.6133 22.7132 72.1967 22.9232 71.83C23.1365 71.4633 23.4249 71.175 23.7882 70.965C24.1549 70.755 24.5715 70.65 25.0382 70.65C25.5049 70.65 25.9215 70.755 26.2882 70.965C26.6549 71.175 26.9432 71.4633 27.1532 71.83C27.3632 72.1967 27.4682 72.6133 27.4682 73.08V75.72C27.4682 76.1867 27.3632 76.6033 27.1532 76.97C26.9432 77.3333 26.6549 77.6217 26.2882 77.835C25.9215 78.045 25.5049 78.15 25.0382 78.15ZM25.0382 77.295C25.3215 77.295 25.5782 77.2267 25.8082 77.09C26.0382 76.9533 26.2215 76.77 26.3582 76.54C26.4949 76.3067 26.5632 76.05 26.5632 75.77V73.025C26.5632 72.7417 26.4949 72.485 26.3582 72.255C26.2215 72.025 26.0382 71.8417 25.8082 71.705C25.5782 71.5683 25.3215 71.5 25.0382 71.5C24.7582 71.5 24.5015 71.5683 24.2682 71.705C24.0382 71.8417 23.8549 72.025 23.7182 72.255C23.5815 72.485 23.5132 72.7417 23.5132 73.025V75.77C23.5132 76.05 23.5815 76.3067 23.7182 76.54C23.8549 76.77 24.0382 76.9533 24.2682 77.09C24.5015 77.2267 24.7582 77.295 25.0382 77.295Z" fill="#EBEEF7" fill-opacity="0.3"/>
<path d="M40 74H327" stroke="#EBEEF7" stroke-opacity="0.1" stroke-dasharray="4 4"/>
<path d="M17.08 94L19.67 87.655H16.4V86.8H20.625V87.655L18.04 94H17.08ZM23.957 94.15C23.587 94.15 23.242 94.0733 22.922 93.92C22.6053 93.7667 22.3336 93.5567 22.107 93.29C21.8836 93.02 21.7236 92.71 21.627 92.36L22.482 92.13C22.542 92.3667 22.6486 92.5717 22.802 92.745C22.9553 92.915 23.1336 93.0483 23.337 93.145C23.5436 93.2383 23.7586 93.285 23.982 93.285C24.2753 93.285 24.5386 93.215 24.772 93.075C25.0086 92.9317 25.1953 92.7433 25.332 92.51C25.4686 92.2733 25.537 92.015 25.537 91.735C25.537 91.445 25.4653 91.1833 25.322 90.95C25.182 90.7133 24.9936 90.5267 24.757 90.39C24.5203 90.2533 24.262 90.185 23.982 90.185C23.6653 90.185 23.3936 90.2517 23.167 90.385C22.9436 90.515 22.767 90.675 22.637 90.865L21.847 90.565L22.067 86.8H25.932V87.645H22.497L22.892 87.275L22.707 90.29L22.512 90.035C22.712 89.8217 22.9503 89.6567 23.227 89.54C23.507 89.4233 23.792 89.365 24.082 89.365C24.5286 89.365 24.9286 89.47 25.282 89.68C25.6353 89.8867 25.9153 90.17 26.122 90.53C26.3286 90.8867 26.432 91.2883 26.432 91.735C26.432 92.1783 26.3186 92.5833 26.092 92.95C25.8653 93.3133 25.5636 93.605 25.187 93.825C24.8136 94.0417 24.4036 94.15 23.957 94.15Z" fill="#EBEEF7" fill-opacity="0.3"/>
<path d="M40 90H327" stroke="#EBEEF7" stroke-opacity="0.1" stroke-dasharray="4 4"/>
<path d="M17.08 110L19.67 103.655H16.4V102.8H20.625V103.655L18.04 110H17.08ZM24.257 110.15C23.7903 110.15 23.3736 110.045 23.007 109.835C22.6436 109.622 22.3553 109.333 22.142 108.97C21.932 108.603 21.827 108.187 21.827 107.72V105.08C21.827 104.613 21.932 104.197 22.142 103.83C22.3553 103.463 22.6436 103.175 23.007 102.965C23.3736 102.755 23.7903 102.65 24.257 102.65C24.7236 102.65 25.1403 102.755 25.507 102.965C25.8736 103.175 26.162 103.463 26.372 103.83C26.582 104.197 26.687 104.613 26.687 105.08V107.72C26.687 108.187 26.582 108.603 26.372 108.97C26.162 109.333 25.8736 109.622 25.507 109.835C25.1403 110.045 24.7236 110.15 24.257 110.15ZM24.257 109.295C24.5403 109.295 24.797 109.227 25.027 109.09C25.257 108.953 25.4403 108.77 25.577 108.54C25.7136 108.307 25.782 108.05 25.782 107.77V105.025C25.782 104.742 25.7136 104.485 25.577 104.255C25.4403 104.025 25.257 103.842 25.027 103.705C24.797 103.568 24.5403 103.5 24.257 103.5C23.977 103.5 23.7203 103.568 23.487 103.705C23.257 103.842 23.0736 104.025 22.937 104.255C22.8003 104.485 22.732 104.742 22.732 105.025V107.77C22.732 108.05 22.8003 108.307 22.937 108.54C23.0736 108.77 23.257 108.953 23.487 109.09C23.7203 109.227 23.977 109.295 24.257 109.295Z" fill="#EBEEF7" fill-opacity="0.3"/>
<path d="M40 106H327" stroke="#EBEEF7" stroke-opacity="0.1" stroke-dasharray="4 4"/>
<path d="M19.155 126.15C18.6983 126.15 18.2833 126.04 17.91 125.82C17.54 125.6 17.245 125.3 17.025 124.92C16.8083 124.537 16.7 124.105 16.7 123.625V121.23C16.7 120.727 16.8083 120.282 17.025 119.895C17.245 119.505 17.545 119.202 17.925 118.985C18.3083 118.765 18.745 118.655 19.235 118.655C19.6317 118.655 20 118.737 20.34 118.9C20.6833 119.06 20.9717 119.292 21.205 119.595L20.54 120.185C20.3967 119.975 20.21 119.808 19.98 119.685C19.75 119.562 19.5017 119.5 19.235 119.5C18.9183 119.5 18.6367 119.577 18.39 119.73C18.1467 119.88 17.955 120.08 17.815 120.33C17.675 120.577 17.605 120.843 17.605 121.13V122.575L17.41 122.355C17.62 122.055 17.8867 121.815 18.21 121.635C18.5333 121.455 18.8833 121.365 19.26 121.365C19.7067 121.365 20.1067 121.47 20.46 121.68C20.8167 121.89 21.0967 122.175 21.3 122.535C21.5067 122.892 21.61 123.293 21.61 123.74C21.61 124.187 21.4983 124.592 21.275 124.955C21.0517 125.318 20.7533 125.608 20.38 125.825C20.01 126.042 19.6017 126.15 19.155 126.15ZM19.155 125.29C19.4417 125.29 19.7033 125.222 19.94 125.085C20.1767 124.945 20.3633 124.758 20.5 124.525C20.64 124.288 20.71 124.027 20.71 123.74C20.71 123.453 20.64 123.192 20.5 122.955C20.3633 122.718 20.1767 122.532 19.94 122.395C19.7067 122.255 19.4467 122.185 19.16 122.185C18.8733 122.185 18.6117 122.255 18.375 122.395C18.1417 122.532 17.955 122.718 17.815 122.955C17.675 123.192 17.605 123.453 17.605 123.74C17.605 124.023 17.6733 124.283 17.81 124.52C17.95 124.753 18.1367 124.94 18.37 125.08C18.6067 125.22 18.8683 125.29 19.155 125.29ZM25.0409 126.15C24.6709 126.15 24.3259 126.073 24.0059 125.92C23.6893 125.767 23.4176 125.557 23.1909 125.29C22.9676 125.02 22.8076 124.71 22.7109 124.36L23.5659 124.13C23.6259 124.367 23.7326 124.572 23.8859 124.745C24.0393 124.915 24.2176 125.048 24.4209 125.145C24.6276 125.238 24.8426 125.285 25.0659 125.285C25.3593 125.285 25.6226 125.215 25.8559 125.075C26.0926 124.932 26.2793 124.743 26.4159 124.51C26.5526 124.273 26.6209 124.015 26.6209 123.735C26.6209 123.445 26.5493 123.183 26.4059 122.95C26.2659 122.713 26.0776 122.527 25.8409 122.39C25.6043 122.253 25.3459 122.185 25.0659 122.185C24.7493 122.185 24.4776 122.252 24.2509 122.385C24.0276 122.515 23.8509 122.675 23.7209 122.865L22.9309 122.565L23.1509 118.8H27.0159V119.645H23.5809L23.9759 119.275L23.7909 122.29L23.5959 122.035C23.7959 121.822 24.0343 121.657 24.3109 121.54C24.5909 121.423 24.8759 121.365 25.1659 121.365C25.6126 121.365 26.0126 121.47 26.3659 121.68C26.7193 121.887 26.9993 122.17 27.2059 122.53C27.4126 122.887 27.5159 123.288 27.5159 123.735C27.5159 124.178 27.4026 124.583 27.1759 124.95C26.9493 125.313 26.6476 125.605 26.2709 125.825C25.8976 126.042 25.4876 126.15 25.0409 126.15Z" fill="#EBEEF7" fill-opacity="0.3"/>
<path d="M40 122H327" stroke="#EBEEF7" stroke-opacity="0.1" stroke-dasharray="4 4"/>
<circle cx="322" cy="106" r="2" fill="#EBEEF7"/>
<path d="M38 58L89.6839 72.088L133.984 65.2453L198.959 90.2013L232.922 82.1509L284.606 122L323 106.302" stroke="#EBEEF7" stroke-linecap="round"/>
<path d="M18.592 163L24.808 147.772H16.96V145.72H27.1V147.772L20.896 163H18.592ZM35.8167 163.36C34.6967 163.36 33.6967 163.108 32.8167 162.604C31.9447 162.092 31.2527 161.4 30.7407 160.528C30.2367 159.648 29.9847 158.648 29.9847 157.528V151.192C29.9847 150.072 30.2367 149.072 30.7407 148.192C31.2527 147.312 31.9447 146.62 32.8167 146.116C33.6967 145.612 34.6967 145.36 35.8167 145.36C36.9367 145.36 37.9367 145.612 38.8167 146.116C39.6967 146.62 40.3887 147.312 40.8927 148.192C41.3967 149.072 41.6487 150.072 41.6487 151.192V157.528C41.6487 158.648 41.3967 159.648 40.8927 160.528C40.3887 161.4 39.6967 162.092 38.8167 162.604C37.9367 163.108 36.9367 163.36 35.8167 163.36ZM35.8167 161.308C36.4967 161.308 37.1127 161.144 37.6647 160.816C38.2167 160.488 38.6567 160.048 38.9847 159.496C39.3127 158.936 39.4767 158.32 39.4767 157.648V151.06C39.4767 150.38 39.3127 149.764 38.9847 149.212C38.6567 148.66 38.2167 148.22 37.6647 147.892C37.1127 147.564 36.4967 147.4 35.8167 147.4C35.1447 147.4 34.5287 147.564 33.9687 147.892C33.4167 148.22 32.9767 148.66 32.6487 149.212C32.3207 149.764 32.1567 150.38 32.1567 151.06V157.648C32.1567 158.32 32.3207 158.936 32.6487 159.496C32.9767 160.048 33.4167 160.488 33.9687 160.816C34.5287 161.144 35.1447 161.308 35.8167 161.308Z" fill="#EBEEF7"/>
<path d="M16.973 183L16.98 175.44H18.464V179.08L21.432 175.44H23.294L20.158 179.22L23.616 183H21.628L18.464 179.36V183H16.973ZM24.3218 183V175.44H29.6418V176.819H25.7848V183H24.3218Z" fill="#EBEEF7" fill-opacity="0.3"/>
<path d="M313 180L325 180M325 180L320.333 175M325 180L320.333 185" stroke="#EBEEF7" stroke-linecap="round" stroke-linejoin="round"/>
<defs>
<radialGradient id="paint0_radial_3370_163239" cx="0" cy="0" r="1" gradientUnits="userSpaceOnUse" gradientTransform="translate(47.8604 52.3423) rotate(33.0202) scale(519.667 4711.26)">
<stop stop-color="#4D8AEE"/>
<stop offset="1" stop-color="#2932FF"/>
</radialGradient>
</defs>
</svg>
