<svg width="20" height="19" viewBox="0 0 20 19" fill="none" xmlns="http://www.w3.org/2000/svg">
<path d="M1.74978 0.650025L1.74997 0.650024L18.2497 0.650024H18.25V0.750024C18.5406 0.748358 18.8253 0.832162 19.0686 0.991013C19.312 1.14986 19.5033 1.37675 19.6187 1.64346L1.74978 0.650025ZM1.74978 0.650025C1.44011 0.650635 1.13727 0.741095 0.878003 0.910431C0.618734 1.07977 0.414177 1.3207 0.289145 1.60401C0.164114 1.88731 0.123982 2.20082 0.173618 2.50648C0.223254 2.81215 0.360525 3.09684 0.568778 3.32602L1.74978 0.650025ZM1.98072 2.35002L8.16784 8.9531C8.44625 9.24928 8.60085 9.64072 8.59998 10.0472C8.59998 10.0473 8.59997 10.0474 8.59997 10.0474M1.98072 2.35002L8.49998 10.0472L8.59997 10.0474M1.98072 2.35002H18.0194L11.8341 8.95765C11.8341 8.9577 11.834 8.95774 11.834 8.95779C11.5561 9.25245 11.4009 9.64194 11.4 10.047V10.0472V15.1959L8.59998 17.0631M1.98072 2.35002L8.59998 17.0631M8.59997 10.0474L8.59998 17.0631M8.59997 10.0474L8.59998 17.0631" fill="#4D8AEE" stroke="#4D8AEE" stroke-width="0.2"/>
</svg>
