<svg width="21" height="24" viewBox="0 0 21 24" fill="none" xmlns="http://www.w3.org/2000/svg">
<path d="M0.875 20.5V3.5C0.875 2.39543 1.77043 1.5 2.875 1.5H15.575H17.775C18.8796 1.5 19.775 2.39543 19.775 3.5V5.7V20.5C19.775 21.6046 18.8796 22.5 17.775 22.5H2.875C1.77043 22.5 0.875 21.6046 0.875 20.5Z" stroke="white" stroke-width="1.5"/>
<path d="M8 9.6792L16.6211 9.6792" stroke="white" stroke-width="1.5" stroke-linecap="round"/>
<path d="M8 13.6582L16.6211 13.6582" stroke="white" stroke-width="1.5" stroke-linecap="round"/>
<path d="M8 17.6372L16.6211 17.6372" stroke="white" stroke-width="1.5" stroke-linecap="round"/>
<path d="M4.85238 14.487C5.3102 14.487 5.68133 14.1159 5.68133 13.658C5.68133 13.2002 5.3102 12.8291 4.85238 12.8291C4.39457 12.8291 4.02344 13.2002 4.02344 13.658C4.02344 14.1159 4.39457 14.487 4.85238 14.487Z" fill="white"/>
<path d="M4.85238 10.508C5.3102 10.508 5.68133 10.1369 5.68133 9.67904C5.68133 9.22123 5.3102 8.8501 4.85238 8.8501C4.39457 8.8501 4.02344 9.22123 4.02344 9.67904C4.02344 10.1369 4.39457 10.508 4.85238 10.508Z" fill="white"/>
<path d="M4.85238 18.466C5.3102 18.466 5.68133 18.0949 5.68133 17.6371C5.68133 17.1792 5.3102 16.8081 4.85238 16.8081C4.39457 16.8081 4.02344 17.1792 4.02344 17.6371C4.02344 18.0949 4.39457 18.466 4.85238 18.466Z" fill="white"/>
</svg>
