<svg width="24" height="24" viewBox="0 0 24 24" fill="none" xmlns="http://www.w3.org/2000/svg">
<path d="M16.4375 5.25V5.3125H16.5H20.25C20.6312 5.3125 20.9969 5.46395 21.2665 5.73353C21.536 6.00312 21.6875 6.36875 21.6875 6.75V18.75C21.6875 19.1312 21.536 19.4969 21.2665 19.7665C20.9969 20.036 20.6312 20.1875 20.25 20.1875H3.75C3.36875 20.1875 3.00312 20.036 2.73353 19.7665C2.46395 19.4969 2.3125 19.1312 2.3125 18.75V6.75C2.3125 6.36875 2.46395 6.00312 2.73353 5.73353C3.00312 5.46395 3.36875 5.3125 3.75 5.3125H7.5H7.5625V5.25V4.5C7.5625 3.91984 7.79297 3.36344 8.2032 2.9532C8.61344 2.54297 9.16984 2.3125 9.75 2.3125H14.25C14.8302 2.3125 15.3866 2.54297 15.7968 2.9532C16.207 3.36344 16.4375 3.91984 16.4375 4.5V5.25ZM15 5.3125H15.0625V5.25V4.5C15.0625 4.28451 14.9769 4.07785 14.8245 3.92548C14.6722 3.7731 14.4655 3.6875 14.25 3.6875H9.75C9.53451 3.6875 9.32785 3.7731 9.17548 3.92548C9.0231 4.07785 8.9375 4.28451 8.9375 4.5V5.25V5.3125H9H15ZM20.25 18.8125H20.3125V18.75V6.75V6.6875H20.25H3.75H3.6875V6.75V18.75V18.8125H3.75H20.25ZM12.75 13.4375H12.6875V13.5V15C12.6875 15.1823 12.6151 15.3572 12.4861 15.4861C12.3572 15.6151 12.1823 15.6875 12 15.6875C11.8177 15.6875 11.6428 15.6151 11.5139 15.4861C11.3849 15.3572 11.3125 15.1823 11.3125 15V13.5V13.4375H11.25H9.75C9.56766 13.4375 9.3928 13.3651 9.26386 13.2361C9.13493 13.1072 9.0625 12.9323 9.0625 12.75C9.0625 12.5677 9.13493 12.3928 9.26386 12.2639C9.3928 12.1349 9.56766 12.0625 9.75 12.0625H11.25H11.3125V12V10.5C11.3125 10.3177 11.3849 10.1428 11.5139 10.0139C11.6428 9.88493 11.8177 9.8125 12 9.8125C12.1823 9.8125 12.3572 9.88493 12.4861 10.0139C12.6151 10.1428 12.6875 10.3177 12.6875 10.5V12V12.0625H12.75H14.25C14.4323 12.0625 14.6072 12.1349 14.7361 12.2639C14.8651 12.3928 14.9375 12.5677 14.9375 12.75C14.9375 12.9323 14.8651 13.1072 14.7361 13.2361C14.6072 13.3651 14.4323 13.4375 14.25 13.4375H12.75Z" fill="#EBEEF7" stroke="#EBEEF7" stroke-width="0.125"/>
</svg>
