<svg width="23" height="26" viewBox="0 0 23 26" fill="none" xmlns="http://www.w3.org/2000/svg">
<path d="M13.708 14.2803C13.4575 14.3577 13.1872 14.3346 13.0258 14.2937C12.4181 13.9895 11.7537 13.8185 11.0623 13.8185C10.3745 13.8185 9.70841 13.9777 9.09832 14.2803C8.12081 12.2159 6.19184 10.9087 4.06246 10.9087L3.90952 10.9106C2.30522 10.9575 1 12.4816 1 14.3078V20.7234C1 22.1856 1.84315 23.484 3.0939 23.9481L3.37514 24.0524C5.51272 24.8456 7.75202 25.25 10.0062 25.25H10.6389C14.2679 25.25 17.8516 24.1948 21.0024 22.1991C21.789 21.7008 22.1697 20.693 21.9279 19.7482C21.8147 19.3058 21.7574 18.7095 21.7574 17.9755C21.7574 16.6944 21.1917 12.3299 20.0758 9.51288C19.1496 7.17471 17.8307 5.04726 16.1546 3.1893C15.2095 2.14154 13.9412 1.58271 12.5987 1.6275C12.035 1.64628 11.4894 1.85837 11.0201 2.20514L10.0012 2.95797C9.76694 3.13101 9.56859 3.3688 9.46647 3.65955C9.30393 4.12226 9.36007 4.61475 9.5884 4.99939C9.11033 5.56912 9.12145 6.46376 9.62175 7.01835L11.3717 8.95825C11.4937 9.09341 11.6384 9.20063 11.7977 9.27377C11.9571 9.3469 12.1278 9.38453 12.3003 9.38449L14.5123 9.38403C14.5072 9.89252 14.4279 12.0277 14.3464 12.6568L14.3465 12.6596C14.2973 13.0387 14.2461 13.4445 14.2046 13.8601C14.0953 14.0925 13.908 14.2185 13.708 14.2803ZM13.708 14.2803C14.0532 14.7569 14.5779 16.0776 13.9147 17.5479" stroke="white" stroke-width="1.5" stroke-linecap="round" stroke-linejoin="round"/>
</svg>
