<svg width="24" height="24" viewBox="0 0 24 24" fill="none" xmlns="http://www.w3.org/2000/svg">
<path d="M8.78561 20.4215L1.55347 22.4465L3.57847 15.2144L16.8213 2.0358C16.9709 1.88272 17.1498 1.76109 17.347 1.67806C17.5444 1.59502 17.7564 1.55225 17.9704 1.55225C18.1845 1.55225 18.3965 1.59502 18.5938 1.67806C18.791 1.76109 18.9699 1.88272 19.1195 2.0358L21.9642 4.89651C22.1148 5.04591 22.2343 5.22367 22.316 5.4195C22.3976 5.61535 22.4396 5.82542 22.4396 6.03758C22.4396 6.24974 22.3976 6.45981 22.316 6.65565C22.2343 6.8515 22.1148 7.02925 21.9642 7.17865L8.78561 20.4215Z" stroke="#EBEEF7" stroke-width="1.5" stroke-linecap="round" stroke-linejoin="round"/>
</svg>
