<svg width="20" height="23" viewBox="0 0 20 23" fill="none" xmlns="http://www.w3.org/2000/svg">
<path d="M11.8925 12.0974C11.6779 12.1638 11.4462 12.1439 11.3078 12.1089C10.7869 11.8481 10.2174 11.7016 9.62484 11.7016C9.03528 11.7016 8.46435 11.838 7.94141 12.0974C7.10355 10.3279 5.45014 9.20748 3.62497 9.20748L3.49387 9.20912C2.11876 9.2493 1 10.5556 1 12.121V17.6201C1 18.8733 1.7227 19.9863 2.79477 20.3841L3.03583 20.4735C4.86805 21.1534 6.78745 21.5 8.71959 21.5H9.26193C12.3725 21.5 15.4442 20.5956 18.145 18.8849C18.8192 18.4579 19.1455 17.594 18.9382 16.7841C18.8411 16.405 18.7921 15.8939 18.7921 15.2647C18.7921 14.1666 18.3072 10.4256 17.3507 8.01104C16.5568 6.00689 15.4263 4.18337 13.9897 2.59083C13.1795 1.69275 12.0925 1.21375 10.9418 1.25214C10.4586 1.26824 9.99095 1.45003 9.58867 1.74727L8.71529 2.39254C8.51452 2.54087 8.34451 2.74468 8.25697 2.9939C8.11765 3.39051 8.16578 3.81264 8.36149 4.14233C7.95172 4.63068 7.96124 5.39751 8.39007 5.87287L9.89006 7.53564C9.99457 7.6515 10.1187 7.7434 10.2552 7.80608C10.3918 7.86877 10.5381 7.90102 10.6859 7.90099L12.582 7.9006C12.5776 8.33645 12.5096 10.1666 12.4398 10.7059L12.4399 10.7082C12.3977 11.0331 12.3538 11.381 12.3183 11.7373C12.2246 11.9364 12.064 12.0444 11.8925 12.0974ZM11.8925 12.0974C12.1885 12.5059 12.6382 13.638 12.0697 14.8982" stroke="#EF151A" stroke-width="1.5" stroke-linecap="round" stroke-linejoin="round"/>
</svg>
