<svg width="24" height="24" viewBox="0 0 24 24" fill="none" xmlns="http://www.w3.org/2000/svg">
<path d="M3 20V4C3 2.89543 3.89543 2 5 2H17H19C20.1046 2 21 2.89543 21 4V6V20C21 21.1046 20.1046 22 19 22H5C3.89543 22 3 21.1046 3 20Z" stroke="#EF151A" stroke-width="1.5"/>
<path d="M17 2V4C17 5.10457 17.8954 6 19 6H21" stroke="#EF151A" stroke-width="1.5" stroke-linecap="round"/>
<path d="M8 13.1726L9.95 15.7172C10.0158 15.804 10.1001 15.8745 10.1966 15.9235C10.2931 15.9725 10.3993 15.9986 10.5071 15.9999C10.6133 16.0013 10.7184 15.9784 10.8147 15.9333C10.9111 15.8882 10.9964 15.8217 11.0643 15.739L16 9" stroke="#EF151A" stroke-width="1.5" stroke-linecap="round" stroke-linejoin="round"/>
</svg>
