<svg width="28" height="28" viewBox="0 0 28 28" fill="none" xmlns="http://www.w3.org/2000/svg">
<path d="M23.3762 4.66699H17.389C16.9757 4.66699 16.6406 5.00206 16.6406 5.41539V8.42395C16.6406 8.83727 16.9757 9.17234 17.389 9.17234H23.3762C23.7895 9.17234 24.1246 8.83727 24.1246 8.42395V5.41539C24.1246 5.00206 23.7895 4.66699 23.3762 4.66699Z" stroke="#EBEEF7" stroke-width="1.5" stroke-linecap="round" stroke-linejoin="round"/>
<path d="M11.4016 4.66699H5.41441C5.00108 4.66699 4.66602 5.00206 4.66602 5.41539V14.3962C4.66602 14.8095 5.00108 15.1446 5.41441 15.1446H11.4016C11.8149 15.1446 12.15 14.8095 12.15 14.3962V5.41539C12.15 5.00206 11.8149 4.66699 11.4016 4.66699Z" stroke="#EBEEF7" stroke-width="1.5" stroke-linecap="round" stroke-linejoin="round"/>
<path d="M11.4016 19.6201H5.41441C5.00109 19.6201 4.66602 19.9551 4.66602 20.3685V23.3771C4.66602 23.7903 5.00109 24.1255 5.41441 24.1255H11.4016C11.8149 24.1255 12.15 23.7903 12.15 23.3771V20.3685C12.15 19.9551 11.8149 19.6201 11.4016 19.6201Z" stroke="#EBEEF7" stroke-width="1.5" stroke-linecap="round" stroke-linejoin="round"/>
<path d="M23.3762 13.6475H17.389C16.9757 13.6475 16.6406 13.9825 16.6406 14.3959V23.3766C16.6406 23.7899 16.9757 24.125 17.389 24.125H23.3762C23.7895 24.125 24.1246 23.7899 24.1246 23.3766V14.3959C24.1246 13.9825 23.7895 13.6475 23.3762 13.6475Z" stroke="#EBEEF7" stroke-width="1.5" stroke-linecap="round" stroke-linejoin="round"/>
</svg>
