<svg width="343" height="194" viewBox="0 0 343 194" fill="none" xmlns="http://www.w3.org/2000/svg">
<path d="M0 14C0 6.26801 6.26801 0 14 0H329C336.732 0 343 6.26801 343 14V180C343 187.732 336.732 194 329 194H14C6.26801 194 0 187.732 0 180V14Z" fill="#23252B"/>
<path d="M181.128 76.6422H186.302C186.988 76.6422 187.646 76.9147 188.132 77.3999C188.617 77.8851 188.889 78.5431 188.889 79.2293V97.3393C188.889 98.0255 188.617 98.6835 188.132 99.1687C187.646 99.6539 186.988 99.9265 186.302 99.9265H157.844C157.157 99.9265 156.499 99.6539 156.014 99.1687C155.529 98.6835 155.257 98.0255 155.257 97.3393V79.2293C155.257 78.5431 155.529 77.8851 156.014 77.3999C156.499 76.9147 157.157 76.6422 157.844 76.6422H163.018" stroke="#EBEEF7" stroke-width="2" stroke-linecap="round" stroke-linejoin="round"/>
<path d="M172.168 66.2939V84.4039" stroke="#EBEEF7" stroke-width="2" stroke-linecap="round" stroke-linejoin="round"/>
<path d="M167.041 79.2301L172.215 84.4044L177.389 79.2301" stroke="#EBEEF7" stroke-width="2" stroke-linecap="round" stroke-linejoin="round"/>
<path d="M118.431 130.21C117.731 130.21 117.122 130.107 116.604 129.902C116.086 129.697 115.652 129.431 115.302 129.104C114.957 128.773 114.693 128.42 114.511 128.047L115.785 127.221C115.897 127.496 116.065 127.755 116.289 127.998C116.518 128.241 116.812 128.439 117.171 128.593C117.535 128.742 117.976 128.817 118.494 128.817C119.012 128.817 119.439 128.74 119.775 128.586C120.111 128.427 120.361 128.217 120.524 127.956C120.692 127.69 120.776 127.391 120.776 127.06C120.776 126.673 120.673 126.374 120.468 126.164C120.267 125.949 119.999 125.8 119.663 125.716C119.327 125.627 118.963 125.576 118.571 125.562C118.244 125.553 118.009 125.546 117.864 125.541C117.719 125.532 117.621 125.527 117.57 125.527C117.523 125.527 117.479 125.527 117.437 125.527V124.141C117.488 124.141 117.577 124.141 117.703 124.141C117.834 124.141 117.969 124.141 118.109 124.141C118.249 124.136 118.363 124.132 118.452 124.127C119.031 124.099 119.497 123.957 119.852 123.7C120.211 123.443 120.391 123.079 120.391 122.608C120.391 122.137 120.216 121.766 119.866 121.495C119.521 121.224 119.066 121.089 118.501 121.089C117.964 121.089 117.502 121.213 117.115 121.46C116.728 121.703 116.429 122.004 116.219 122.363L115.141 121.348C115.477 120.881 115.937 120.492 116.52 120.179C117.103 119.866 117.778 119.71 118.543 119.71C118.977 119.71 119.397 119.768 119.803 119.885C120.209 119.997 120.573 120.17 120.895 120.403C121.217 120.636 121.471 120.933 121.658 121.292C121.849 121.647 121.945 122.069 121.945 122.559C121.945 123.049 121.845 123.492 121.644 123.889C121.448 124.286 121.184 124.601 120.853 124.834C121.315 125.007 121.677 125.28 121.938 125.653C122.199 126.022 122.33 126.493 122.33 127.067C122.33 127.711 122.16 128.269 121.819 128.74C121.483 129.207 121.021 129.568 120.433 129.825C119.85 130.082 119.182 130.21 118.431 130.21ZM125.961 130.21C125.401 130.21 124.932 130.107 124.554 129.902C124.176 129.692 123.889 129.417 123.693 129.076C123.501 128.731 123.406 128.353 123.406 127.942C123.406 127.559 123.473 127.223 123.609 126.934C123.744 126.645 123.945 126.4 124.211 126.199C124.477 125.994 124.803 125.828 125.191 125.702C125.527 125.604 125.907 125.518 126.332 125.443C126.756 125.368 127.202 125.298 127.669 125.233C128.14 125.168 128.607 125.102 129.069 125.037L128.537 125.331C128.546 124.738 128.42 124.3 128.159 124.015C127.902 123.726 127.459 123.581 126.829 123.581C126.432 123.581 126.068 123.674 125.737 123.861C125.405 124.043 125.174 124.346 125.044 124.771L123.679 124.351C123.865 123.702 124.22 123.187 124.743 122.804C125.27 122.421 125.97 122.23 126.843 122.23C127.519 122.23 128.107 122.347 128.607 122.58C129.111 122.809 129.479 123.173 129.713 123.672C129.834 123.919 129.909 124.181 129.937 124.456C129.965 124.731 129.979 125.028 129.979 125.345V130H128.684V128.271L128.936 128.495C128.623 129.074 128.224 129.505 127.739 129.79C127.258 130.07 126.665 130.21 125.961 130.21ZM126.22 129.013C126.635 129.013 126.992 128.941 127.291 128.796C127.589 128.647 127.83 128.458 128.012 128.229C128.194 128 128.313 127.762 128.369 127.515C128.448 127.291 128.492 127.039 128.502 126.759C128.516 126.479 128.523 126.255 128.523 126.087L128.999 126.262C128.537 126.332 128.117 126.395 127.739 126.451C127.361 126.507 127.018 126.563 126.71 126.619C126.406 126.67 126.136 126.733 125.898 126.808C125.697 126.878 125.517 126.962 125.359 127.06C125.205 127.158 125.081 127.277 124.988 127.417C124.899 127.557 124.855 127.727 124.855 127.928C124.855 128.124 124.904 128.306 125.002 128.474C125.1 128.637 125.249 128.768 125.45 128.866C125.65 128.964 125.907 129.013 126.22 129.013ZM131.796 130V122.44H137.116V123.819H133.259V130H131.796ZM141.99 130.21C141.267 130.21 140.66 130.035 140.17 129.685C139.68 129.33 139.309 128.852 139.057 128.25C138.805 127.648 138.679 126.969 138.679 126.213C138.679 125.457 138.803 124.778 139.05 124.176C139.302 123.574 139.671 123.1 140.156 122.755C140.646 122.405 141.248 122.23 141.962 122.23C142.671 122.23 143.283 122.405 143.796 122.755C144.314 123.1 144.713 123.574 144.993 124.176C145.273 124.773 145.413 125.452 145.413 126.213C145.413 126.969 145.273 127.65 144.993 128.257C144.718 128.859 144.323 129.335 143.81 129.685C143.301 130.035 142.695 130.21 141.99 130.21ZM138.434 133.36V122.44H139.736V127.879H139.904V133.36H138.434ZM141.787 128.887C142.254 128.887 142.639 128.768 142.942 128.53C143.25 128.292 143.479 127.972 143.628 127.571C143.782 127.165 143.859 126.712 143.859 126.213C143.859 125.718 143.782 125.27 143.628 124.869C143.479 124.468 143.248 124.148 142.935 123.91C142.622 123.672 142.223 123.553 141.738 123.553C141.281 123.553 140.903 123.665 140.604 123.889C140.31 124.113 140.091 124.426 139.946 124.827C139.806 125.228 139.736 125.69 139.736 126.213C139.736 126.736 139.806 127.198 139.946 127.599C140.086 128 140.308 128.315 140.611 128.544C140.914 128.773 141.306 128.887 141.787 128.887ZM147.707 133.36L149.17 129.377L149.191 130.553L145.894 122.44H147.42L149.884 128.705H149.436L151.788 122.44H153.272L149.1 133.36H147.707ZM157.064 130.21C156.331 130.21 155.673 130.054 155.09 129.741C154.511 129.428 154.054 128.997 153.718 128.446L154.88 127.683C155.15 128.047 155.463 128.329 155.818 128.53C156.177 128.731 156.581 128.831 157.029 128.831C157.495 128.831 157.864 128.726 158.135 128.516C158.41 128.301 158.548 128.014 158.548 127.655C158.548 127.37 158.468 127.16 158.31 127.025C158.156 126.885 157.941 126.794 157.666 126.752C157.395 126.71 157.087 126.689 156.742 126.689H156.07V125.513H156.742C157.199 125.513 157.575 125.45 157.869 125.324C158.167 125.193 158.317 124.948 158.317 124.589C158.317 124.239 158.188 123.987 157.932 123.833C157.68 123.679 157.379 123.602 157.029 123.602C156.637 123.602 156.256 123.686 155.888 123.854C155.519 124.017 155.197 124.22 154.922 124.463L154.068 123.462C154.469 123.075 154.926 122.774 155.44 122.559C155.958 122.34 156.513 122.23 157.106 122.23C157.591 122.23 158.039 122.316 158.45 122.489C158.865 122.657 159.196 122.907 159.444 123.238C159.696 123.569 159.822 123.978 159.822 124.463C159.822 124.841 159.738 125.186 159.57 125.499C159.402 125.812 159.145 126.096 158.8 126.353L158.758 125.856C159.042 125.945 159.28 126.087 159.472 126.283C159.663 126.479 159.805 126.71 159.899 126.976C159.997 127.237 160.046 127.515 160.046 127.809C160.046 128.318 159.91 128.752 159.64 129.111C159.374 129.47 159.014 129.743 158.562 129.93C158.109 130.117 157.61 130.21 157.064 130.21ZM167.957 122.44V130H166.55V124.743L162.77 130H161.58V122.44H162.987V127.592L166.774 122.44H167.957ZM171.867 130V123.756H169.284V122.44H175.913V123.756H173.33V130H171.867ZM180.595 130.21C179.843 130.21 179.183 130.047 178.614 129.72C178.049 129.389 177.608 128.929 177.291 128.341C176.978 127.748 176.822 127.062 176.822 126.283C176.822 125.457 176.976 124.741 177.284 124.134C177.596 123.527 178.03 123.058 178.586 122.727C179.141 122.396 179.787 122.23 180.525 122.23C181.295 122.23 181.95 122.41 182.492 122.769C183.033 123.124 183.437 123.63 183.703 124.288C183.973 124.946 184.081 125.728 184.025 126.633H182.562V126.101C182.552 125.224 182.384 124.575 182.058 124.155C181.736 123.735 181.243 123.525 180.581 123.525C179.848 123.525 179.297 123.756 178.929 124.218C178.56 124.68 178.376 125.347 178.376 126.22C178.376 127.051 178.56 127.695 178.929 128.152C179.297 128.605 179.829 128.831 180.525 128.831C180.982 128.831 181.376 128.728 181.708 128.523C182.044 128.313 182.305 128.014 182.492 127.627L183.927 128.082C183.633 128.759 183.187 129.284 182.59 129.657C181.992 130.026 181.327 130.21 180.595 130.21ZM177.9 126.633V125.492H183.297V126.633H177.9ZM188.391 130V122.44H191.716C191.935 122.44 192.155 122.454 192.374 122.482C192.593 122.505 192.787 122.54 192.955 122.587C193.338 122.694 193.664 122.909 193.935 123.231C194.206 123.548 194.341 123.973 194.341 124.505C194.341 124.808 194.294 125.065 194.201 125.275C194.108 125.48 193.979 125.658 193.816 125.807C193.741 125.872 193.662 125.931 193.578 125.982C193.494 126.033 193.41 126.073 193.326 126.101C193.499 126.129 193.669 126.19 193.837 126.283C194.094 126.418 194.304 126.614 194.467 126.871C194.635 127.123 194.719 127.461 194.719 127.886C194.719 128.395 194.595 128.822 194.348 129.167C194.101 129.508 193.751 129.741 193.298 129.867C193.121 129.918 192.92 129.953 192.696 129.972C192.477 129.991 192.257 130 192.038 130H188.391ZM189.875 128.845H191.947C192.045 128.845 192.157 128.836 192.283 128.817C192.409 128.798 192.521 128.773 192.619 128.74C192.829 128.675 192.978 128.556 193.067 128.383C193.16 128.21 193.207 128.026 193.207 127.83C193.207 127.564 193.137 127.352 192.997 127.193C192.857 127.03 192.68 126.925 192.465 126.878C192.372 126.845 192.269 126.827 192.157 126.822C192.045 126.817 191.949 126.815 191.87 126.815H189.875V128.845ZM189.875 125.639H191.513C191.648 125.639 191.786 125.632 191.926 125.618C192.066 125.599 192.187 125.569 192.29 125.527C192.472 125.457 192.607 125.34 192.696 125.177C192.785 125.009 192.829 124.827 192.829 124.631C192.829 124.416 192.78 124.225 192.682 124.057C192.584 123.889 192.437 123.772 192.241 123.707C192.106 123.66 191.949 123.635 191.772 123.63C191.599 123.621 191.49 123.616 191.443 123.616H189.875V125.639ZM202.493 122.44V130H201.086V124.743L197.306 130H196.116V122.44H197.523V127.592L201.31 122.44H202.493ZM203.889 131.68V128.824C204.304 128.824 204.6 128.686 204.778 128.411C204.96 128.131 205.104 127.657 205.212 126.99C205.277 126.584 205.331 126.152 205.373 125.695C205.419 125.238 205.459 124.743 205.492 124.211C205.524 123.674 205.557 123.084 205.59 122.44H211.008V128.824H211.75V131.68H210.364V130H205.282V131.68H203.889ZM205.982 128.824H209.538V123.616H206.892C206.873 123.924 206.852 124.241 206.829 124.568C206.81 124.895 206.787 125.219 206.759 125.541C206.735 125.863 206.707 126.171 206.675 126.465C206.642 126.759 206.605 127.025 206.563 127.263C206.507 127.632 206.439 127.94 206.36 128.187C206.285 128.434 206.159 128.647 205.982 128.824ZM216.497 130.21C215.746 130.21 215.085 130.047 214.516 129.72C213.951 129.389 213.51 128.929 213.193 128.341C212.88 127.748 212.724 127.062 212.724 126.283C212.724 125.457 212.878 124.741 213.186 124.134C213.499 123.527 213.933 123.058 214.488 122.727C215.043 122.396 215.69 122.23 216.427 122.23C217.197 122.23 217.853 122.41 218.394 122.769C218.935 123.124 219.339 123.63 219.605 124.288C219.876 124.946 219.983 125.728 219.927 126.633H218.464V126.101C218.455 125.224 218.287 124.575 217.96 124.155C217.638 123.735 217.146 123.525 216.483 123.525C215.75 123.525 215.2 123.756 214.831 124.218C214.462 124.68 214.278 125.347 214.278 126.22C214.278 127.051 214.462 127.695 214.831 128.152C215.2 128.605 215.732 128.831 216.427 128.831C216.884 128.831 217.279 128.728 217.61 128.523C217.946 128.313 218.207 128.014 218.394 127.627L219.829 128.082C219.535 128.759 219.089 129.284 218.492 129.657C217.895 130.026 217.23 130.21 216.497 130.21ZM213.802 126.633V125.492H219.199V126.633H213.802ZM224.781 130.21C224.025 130.21 223.369 130.04 222.814 129.699C222.258 129.358 221.829 128.889 221.526 128.292C221.227 127.69 221.078 126.997 221.078 126.213C221.078 125.424 221.232 124.731 221.54 124.134C221.848 123.532 222.279 123.065 222.835 122.734C223.39 122.398 224.039 122.23 224.781 122.23C225.537 122.23 226.192 122.4 226.748 122.741C227.303 123.082 227.732 123.551 228.036 124.148C228.339 124.745 228.491 125.434 228.491 126.213C228.491 127.002 228.337 127.697 228.029 128.299C227.725 128.896 227.296 129.365 226.741 129.706C226.185 130.042 225.532 130.21 224.781 130.21ZM224.781 128.831C225.504 128.831 226.043 128.588 226.398 128.103C226.757 127.613 226.937 126.983 226.937 126.213C226.937 125.424 226.755 124.794 226.391 124.323C226.031 123.847 225.495 123.609 224.781 123.609C224.291 123.609 223.887 123.721 223.57 123.945C223.252 124.164 223.017 124.47 222.863 124.862C222.709 125.249 222.632 125.7 222.632 126.213C222.632 127.006 222.814 127.641 223.178 128.117C223.542 128.593 224.076 128.831 224.781 128.831Z" fill="#595B60"/>
</svg>
