<svg width="24" height="24" viewBox="0 0 24 24" fill="none" xmlns="http://www.w3.org/2000/svg">
<path fill-rule="evenodd" clip-rule="evenodd" d="M6.44444 5H12C14.4546 5 16.4444 6.9401 16.4444 9.33333V9.46875L18.6 8.15467C19.285 7.73722 20.1485 7.71511 20.855 8.09694C21.5616 8.47876 22 9.20436 22 9.992V13.008C22.0016 13.7964 21.5639 14.5235 20.857 14.9063C20.1501 15.2892 19.2857 15.2675 18.6 14.8497L16.4444 13.5312V13.6667C16.4444 16.0599 14.4546 18 12 18H6.44444C3.98984 18 2 16.0599 2 13.6667V9.33333C2 6.9401 3.98984 5 6.44444 5Z" stroke="#4D8AEE" stroke-width="1.5" stroke-linecap="round" stroke-linejoin="round"/>
<path d="M16.5 10V13" stroke="#4D8AEE" stroke-width="1.5" stroke-linecap="round"/>
</svg>
